<svg width="100" height="100" viewBox="0 0 100 100" fill="none" xmlns="http://www.w3.org/2000/svg">
<path d="M50 99C77.062 99 99 77.062 99 50C99 22.938 77.062 1 50 1C22.938 1 1 22.938 1 50C1 77.062 22.938 99 50 99Z" stroke="white" stroke-width="2"/>
<path d="M45.5 38.2417L45.75 37.8087L45.5 38.2417L61.25 47.3349C62.9167 48.2972 62.9167 50.7028 61.25 51.6651L45.5 60.7583L45.75 61.1913L45.5 60.7583C43.8333 61.7205 41.75 60.5178 41.75 58.5933V40.4067C41.75 38.4822 43.8333 37.2794 45.5 38.2417Z" fill="white" stroke="white"/>
</svg>
