<?xml version="1.0" encoding="utf-8"?>
<!-- Generator: Adobe Illustrator 24.1.2, SVG Export Plug-In . SVG Version: 6.00 Build 0)  -->
<svg version="1.1" id="Слой_1" xmlns="http://www.w3.org/2000/svg" xmlns:xlink="http://www.w3.org/1999/xlink" x="0px" y="0px"
	 viewBox="0 0 724 590" style="enable-background:new 0 0 724 590;" xml:space="preserve">
<style type="text/css">
	.st0{fill:none;stroke:#C77C50;}
</style>
<path class="st0" d="M209.1,540.5c0.1,0.1,0.3,0.2,0.4,0.3 M209.6,540.8c47.2,36.2,173.3,86.4,302-0.3
	c34.8,13.3,109,23.4,127.3-42.1c41.7,4.6,99-27.2,62.5-125.9c-11.1-22.7-26-55,21.5-77.7c-47.3-22.7-30.9-54.1-20.3-77.8
	c50-111.7-20.9-130.5-62.5-125.9c-18.4-65.6-92.7-55.4-127.4-42.2c-129.2-87-255.7-37.4-302.5-1.1C175.5,34.5,100.9,24.2,82.6,90
	C41,85.4-29.8,104.3,20.2,216.5c14.1,21.7,28.1,55.4-19.2,78.2c47.2,22.6,33.3,56,19.2,77.5C-29.8,483.6,41,502.3,82.6,497.7
	C100.8,562.7,174.6,554,209.6,540.8z M209.6,540.8c0.2-0.1,0.4-0.2,0.6-0.2"/>
</svg>
