<?xml version="1.0" encoding="utf-8"?>
<!-- Generator: Adobe Illustrator 24.1.2, SVG Export Plug-In . SVG Version: 6.00 Build 0)  -->
<svg version="1.1" id="Слой_1" xmlns="http://www.w3.org/2000/svg" xmlns:xlink="http://www.w3.org/1999/xlink" x="0px" y="0px"
	 viewBox="0 0 1020 590" style="enable-background:new 0 0 1020 590;" xml:space="preserve">
<style type="text/css">
	.st0{fill:none;stroke:#C77C50;}
	.st1{fill:#D29875;}
</style>
<path class="st0" d="M357,541.8c0.1,0.1,0.3,0.2,0.4,0.3 M357.5,542.1c47.3,36.3,173.5,86.7,302.4-0.3
	c34.8,13.3,109.1,23.5,127.5-42.2c41.8,4.6,99.1-27.3,62.6-126.3c-11.1-22.8-26-55.2,21.5-78c-47.4-22.8-30.9-54.3-20.3-78.1
	c50.1-112.1-20.9-130.9-62.6-126.3c-18.4-65.8-92.8-55.6-127.6-42.3C531.6-38.7,405,11.1,358.1,47.5
	c-34.8-13.4-109.5-23.7-127.8,42.3c-41.7-4.6-112.5,14.3-62.5,126.9c14.1,21.8,28.1,55.6-19.2,78.5c47.3,22.7,33.3,56.2,19.2,77.8
	c-50,111.7,20.8,130.5,62.5,125.9C248.5,564.1,322.4,555.3,357.5,542.1z M357.5,542.1c0.2-0.1,0.4-0.2,0.6-0.2"/>
<path class="st1" d="M8,247.6c-3.4,0.5-5.8,2.4-7.1,5.6c-0.7,1.6-0.9,3-0.9,5.4c0,3.1,0.5,5.3,1.8,7.9c0.8,1.6,1.8,2.9,2.9,3.6
	c1,0.7,1.6,0.9,2.8,0.9c1.1,0,2-0.4,2.8-1.1c1.2-1.1,2.2-3.2,2.1-4.3c0-0.5-0.1-0.6-0.4-0.7c-0.3,0-0.6,0.2-1.7,1.4
	c-1.6,1.8-2.3,2.1-3.1,1.9c-1.3-0.4-2.8-2.8-3.5-5.5c-1.4-5.4-0.2-10,3.1-11.5c1.1-0.5,2-0.7,3.9-0.6c3,0.1,5.2,1,7,2.7
	c2.3,2.3,3.4,6.1,4,13.4c0.1,1.4,0.3,3.9,0.4,5.4c0.6,8,1.8,12.2,4.3,15.6c2.8,3.8,9,6.9,15.6,7.8c1.8,0.2,5.5,0.3,7.4,0.1
	c5-0.5,9.9-2.5,13.2-5.3l0.8-0.7l0.2,0.8c0.1,0.5,0.3,0.9,0.4,1c0.5,0.3,0.9-0.3,1.5-2.3c2-6.3,6.2-9,13.8-8.8
	c4.7,0.1,9.9,1.5,14.6,3.8c4.2,2.1,6.9,4.2,9.4,7.4c4,5.1,6.7,11.5,7.8,18.7c0.3,2.1,0.4,6.9,0.1,9.1c-0.7,5.4-2.7,9.8-6,13.1
	c-2.6,2.6-5.6,4-8.9,4.2c-1.3,0.1-1.4,0.1-1.6-0.2c-0.2-0.3-0.7-0.4-0.9-0.1c-0.1,0.2-0.3,0.2-1.3-0.1c-3.3-0.8-6.4-2.6-9.1-5.5
	c-2.6-2.7-4.4-5.8-5.2-9.3c-0.3-1.2-0.4-1.7-0.4-3.4c0-2.8,0.4-4.3,1.9-6.5c1.6-2.5,3.9-3.7,7.1-3.7c4.5,0,8.4,2.3,9.3,5.7
	c0.3,1.2,0.2,3-0.3,4c-1,2-3.4,3.4-4.8,2.8c-0.6-0.3-0.9-0.8-1-2c-0.1-0.9-0.1-1,0.2-1c0.9-0.2,1.1-0.1,1.3,1
	c0.1,0.9,0.5,1.5,0.9,1.4c0.5-0.1,0.8-1.1,0.9-3l0.1-1.6l-1.7-0.2c-1.4-0.2-1.8-0.2-2.8-0.1l-1.2,0.2l-0.3,1.2
	c-0.7,3-0.1,5.5,1.6,6.6c2.7,1.8,6.8,0.5,9-2.7c1.5-2.3,1.9-5.2,0.9-7.9c-1.5-4.5-7.4-7.7-13.1-7c-1.8,0.2-2.7,0.5-4.2,1.2
	c-2.1,1-3.5,2.6-4.8,5.1c-0.8,1.6-1.1,2.9-1.3,4.8c-0.7,6.8,3.6,14.6,10.3,19c2,1.3,3.8,2.1,6,2.6l1.4,0.3l-0.4,2.3
	c-1.1,5.7-2.3,9.1-6.4,18.3c-3.9,8.6-5.1,11.7-6.1,15.6c-1.1,4.3-1.3,6.7-1.2,11.9c0.1,5.1,0.5,9,1.4,13.6
	c2.2,11.2,6.4,19.3,11.8,23.4l1.1,0.8l-0.1,0.8c-0.1,1.4,0,4.6,0.2,6.5c0.3,2.3,0.8,5.2,1.9,10.3c1.5,7.3,2,10,2.2,14.2
	c0.4,6.6-0.6,10.4-3.9,15.1c-1,1.4-3.4,3.9-4.8,5.1c-3,2.4-6.3,4.1-9.6,4.7c-1.6,0.3-4.4,0.3-5.8-0.1c-2.2-0.6-4-1.7-5.6-3.4
	c-1.6-1.7-2.8-3.8-3.4-5.9c-0.3-0.9-0.3-1.4-0.3-3.7c0-2.3,0-2.8,0.4-4.3c1.4-6.8,5.5-12.7,9.9-14.4c0.7-0.2,1.1-0.3,2.4-0.3
	c1.5,0,1.7,0,2.6,0.4c3.5,1.4,5.6,4.2,5.3,7.3c-0.3,3.1-2.3,5.4-5.3,5.8c-1.7,0.3-2.9-0.1-3.4-1.1c-0.6-1.2,0.1-3.3,1.3-3.5
	c1.3-0.3,1.4-0.3,1.4-0.7c0-0.6-0.9-1.1-2-1.1c-1.3,0-2.6,1-3.3,2.5c-0.3,0.7-0.4,1-0.4,2.2c0,1.3,0,1.5,0.4,2.2
	c0.5,1,1.6,2,2.6,2.4c0.7,0.3,1,0.3,2.6,0.3c1.7,0,2,0,3-0.4c3-1,5-3.3,5.8-6.5c0.2-0.9,0.3-1.4,0.2-2.7c-0.1-2-0.5-3.4-1.5-4.9
	c-1.7-2.6-5.3-4.6-8.5-4.8c-3.2-0.2-5.9,1-8.6,3.8c-1.6,1.6-2.8,3.4-4,5.9c-2.7,5.6-3.5,12.4-1.9,17c1.2,3.6,4.6,7.3,8,8.7
	c1.9,0.8,3.1,1,5.5,1c1.8,0,2.4-0.1,3.6-0.3c4.6-1.1,8.9-3.5,12.6-7.3c3.7-3.7,6-7.8,6.9-11.9c0.4-2.1,0.6-6.2,0.4-9.3
	c-0.3-4.4-0.7-7.4-2.3-15.4c-1-5.1-1.6-8.1-2-10.8c-0.1-0.9-0.3-1.8-0.3-2l-0.1-0.3l1.3,0.4c2.1,0.7,3.5,0.9,6.1,0.8
	c2.3-0.1,3.3-0.3,5.2-0.9c4.5-1.5,8-5,10.1-10.2c0.5-1.3,1-3.3,1.3-5.2c0.3-2,0.3-6.4,0-8.5c-1.2-8.1-5.2-14.2-10.8-17.1
	c-5.2-2.6-10.8-2.1-15.9,1.3c-4.9,3.3-6.6,8.1-4.4,12.6c0.7,1.5,1.7,2.4,3.1,3.1c0.9,0.4,1.2,0.5,2.2,0.6c1.4,0.1,2.4-0.1,3.6-0.7
	c2.1-1.1,3.4-3.4,3.4-6.1c0-1.2-0.2-1.8-0.7-2.3c-0.7-0.6-1.4-0.4-2,0.8c-0.4,0.7-0.3,1,0.3,1c0.3,0,0.3,0,0.2,0.6
	c-0.4,2-1.7,3.4-3.4,3.7c-2,0.4-3.9-1.2-4.3-3.8c-0.5-2.9,1.8-6,6-8.1c2.4-1.2,3.3-1.4,5.6-1.4c2.1,0,3.1,0.2,4.9,1
	c8.4,3.5,13,16.9,9.4,27.6c-0.4,1.1-1.3,3-2,4.1c-0.9,1.3-2.7,3.1-4,4c-3.4,2.2-8.2,2.9-12.2,1.8c-1.5-0.4-3.2-1.2-3.4-1.6
	c-0.1-0.2-0.3-0.3-0.5-0.3c-0.5,0-2.4-1.6-3.6-3c-4.3-4.8-7.2-12.6-8.6-22.4c-0.5-4-0.7-5.9-0.7-10.3c0-3.7,0.1-4.5,0.3-6.2
	c0.8-5.4,2.1-9,6.6-18.7c3.4-7.2,4.6-10.1,5.5-13.3c0.9-3.3,1.4-6,1.3-8.5l0-1.8l1.3-0.1c6.2-0.4,12-5.2,14.7-12.4
	c2-5.2,2.4-12.1,1-18.9c-1.6-8-5.5-15.8-10.3-20.3c-4.6-4.3-11.7-7.7-19-9c-3.6-0.6-7.7-0.5-10.6,0.4c-1.1,0.3-3.1,1.2-4,1.8
	l-0.4,0.3l0-1.8c0-2-0.2-3.6-0.8-5.5c-1.5-5.3-4.4-10.1-7.5-12.6c-3.3-2.6-6.9-3.3-10.8-2.1c-5.6,1.8-10.9,7.8-12.3,14
	c-0.3,1.5-0.3,3.9,0,5.1c1,3.6,4.1,5.9,8.2,6c2,0,3.6-0.4,5.3-1.6c1.2-0.8,2-1.5,2.7-2.6c1.3-2,1.3-3.9,0-5.3
	c-0.9-0.9-1.4-1.1-3-1.1c-1.4,0-1.4,0-2.4,0.5c-1.1,0.6-2.3,1.6-2.5,2.3c-0.3,0.9,0.1,0.9,1.8,0.3c2-0.8,3.2-0.9,3.9-0.3
	c1.3,1-1.8,4.1-4.7,4.6c-1.6,0.3-3.7-0.3-4.9-1.4c-1.2-1-1.8-3-1.5-5.1c0.8-5.5,5.4-11.3,10.5-13.1c1.3-0.5,3.5-0.6,4.8-0.3
	c3.4,0.9,6.6,4.1,9,9c2.2,4.5,2.9,8.4,2.3,11.8c-0.2,1-0.3,1.3-0.8,2.1c-0.6,0.9-1.3,2.4-1.5,3.4c-0.3,1-2.4,3.1-4.5,4.5
	c-0.4,0.3-1.4,0.8-2.2,1.2c-6.8,3.3-15.8,3.2-22.8-0.2c-1.8-0.9-4.1-2.4-5.2-3.5c-1.7-1.7-3.1-4.4-3.8-7.4
	c-0.7-2.8-0.9-5.2-1.2-11.9c-0.3-7.9-0.8-10.6-2-13.7c-1.9-4.7-6.1-7.4-11.7-7.6C9.4,247.5,8.4,247.5,8,247.6z"/>
<path class="st1" d="M1012,247.6c3.4,0.5,5.8,2.4,7.1,5.6c0.7,1.6,0.9,3,0.9,5.4c0,3.1-0.5,5.3-1.8,7.9c-0.8,1.6-1.8,2.9-2.9,3.6
	c-1,0.7-1.5,0.9-2.8,0.9c-1.1,0-2-0.4-2.9-1.1c-1.2-1.1-2.2-3.2-2.1-4.3c0-0.5,0.1-0.6,0.4-0.7c0.3,0,0.6,0.2,1.7,1.4
	c1.6,1.8,2.3,2.1,3.1,1.9c1.3-0.4,2.8-2.8,3.5-5.5c1.4-5.4,0.2-10-3.1-11.5c-1.1-0.5-2-0.7-3.9-0.6c-3,0.1-5.2,1-7,2.7
	c-2.3,2.3-3.4,6.1-4,13.4c-0.1,1.4-0.3,3.9-0.4,5.4c-0.6,8-1.8,12.2-4.3,15.6c-2.8,3.8-9,6.9-15.6,7.8c-1.8,0.2-5.5,0.3-7.4,0.1
	c-5-0.5-9.9-2.5-13.2-5.3l-0.8-0.7l-0.2,0.8c-0.1,0.5-0.3,0.9-0.4,1c-0.5,0.3-0.9-0.3-1.5-2.3c-2-6.3-6.2-9-13.8-8.8
	c-4.7,0.1-9.9,1.5-14.6,3.8c-4.2,2.1-6.9,4.2-9.4,7.4c-4,5.1-6.7,11.5-7.8,18.7c-0.3,2.1-0.4,6.9-0.1,9.1c0.7,5.4,2.7,9.8,6,13.1
	c2.6,2.6,5.6,4,8.9,4.2c1.3,0.1,1.4,0.1,1.6-0.2c0.2-0.3,0.7-0.4,0.9-0.1c0.1,0.2,0.3,0.2,1.3-0.1c3.3-0.8,6.4-2.6,9.1-5.5
	c2.6-2.7,4.4-5.8,5.2-9.3c0.3-1.2,0.4-1.7,0.4-3.4c0-2.8-0.4-4.3-1.9-6.5c-1.6-2.5-3.9-3.7-7.1-3.7c-4.5,0-8.4,2.3-9.3,5.7
	c-0.3,1.2-0.2,3,0.3,4c0.9,2,3.4,3.4,4.8,2.8c0.6-0.3,0.9-0.8,1-2c0.1-0.9,0.1-1-0.2-1c-0.9-0.2-1.1-0.1-1.3,1
	c-0.1,0.9-0.5,1.5-0.9,1.4c-0.5-0.1-0.8-1.1-0.9-3l-0.1-1.6l1.7-0.2c1.4-0.2,1.8-0.2,2.8-0.1l1.2,0.2l0.3,1.2c0.7,3,0.1,5.5-1.6,6.6
	c-2.7,1.8-6.8,0.5-9-2.7c-1.5-2.3-1.9-5.2-0.9-7.9c1.5-4.5,7.4-7.7,13.1-7c1.8,0.2,2.7,0.5,4.2,1.2c2.1,1,3.5,2.6,4.8,5.1
	c0.8,1.6,1.1,2.9,1.3,4.8c0.7,6.8-3.6,14.6-10.3,19c-2,1.3-3.8,2.1-6,2.6l-1.4,0.3l0.4,2.3c1.1,5.7,2.3,9.1,6.4,18.3
	c3.9,8.6,5.1,11.7,6.1,15.6c1.1,4.3,1.3,6.7,1.2,11.9c-0.1,5.1-0.5,9-1.4,13.6c-2.2,11.2-6.4,19.3-11.8,23.4l-1.1,0.8l0.1,0.8
	c0.1,1.4,0,4.6-0.2,6.5c-0.3,2.3-0.8,5.2-1.9,10.3c-1.5,7.3-2,10-2.2,14.2c-0.4,6.6,0.6,10.4,3.9,15.1c1,1.4,3.4,3.9,4.8,5.1
	c3,2.4,6.3,4.1,9.6,4.7c1.6,0.3,4.4,0.3,5.8-0.1c2.2-0.6,4-1.7,5.6-3.4c1.6-1.7,2.9-3.8,3.4-5.9c0.3-0.9,0.3-1.4,0.3-3.7
	c0-2.3,0-2.8-0.4-4.3c-1.4-6.8-5.5-12.7-9.9-14.4c-0.7-0.2-1.1-0.3-2.4-0.3c-1.5,0-1.7,0-2.6,0.4c-3.5,1.4-5.6,4.2-5.3,7.3
	c0.3,3.1,2.3,5.4,5.3,5.8c1.7,0.3,2.9-0.1,3.4-1.1c0.6-1.2-0.1-3.3-1.3-3.5c-1.3-0.3-1.4-0.3-1.4-0.7c0-0.6,0.9-1.1,2-1.1
	c1.3,0,2.6,1,3.3,2.5c0.3,0.7,0.4,1,0.4,2.2c0,1.3,0,1.5-0.4,2.2c-0.5,1-1.6,2-2.6,2.4c-0.7,0.3-1,0.3-2.6,0.3c-1.7,0-2,0-3-0.4
	c-3-1-5-3.3-5.8-6.5c-0.2-0.9-0.3-1.4-0.2-2.7c0.1-2,0.5-3.4,1.5-4.9c1.7-2.6,5.3-4.6,8.5-4.8c3.2-0.2,5.9,1,8.6,3.8
	c1.6,1.6,2.8,3.4,4,5.9c2.7,5.6,3.5,12.4,1.9,17c-1.2,3.6-4.6,7.3-8,8.7c-1.9,0.8-3.1,1-5.5,1c-1.8,0-2.4-0.1-3.6-0.3
	c-4.6-1.1-8.9-3.5-12.6-7.3c-3.7-3.7-6-7.8-6.9-11.9c-0.4-2.1-0.6-6.2-0.4-9.3c0.3-4.4,0.7-7.4,2.3-15.4c1-5.1,1.6-8.1,2-10.8
	c0.1-0.9,0.3-1.8,0.3-2l0.1-0.3l-1.3,0.4c-2.1,0.7-3.5,0.9-6.1,0.8c-2.3-0.1-3.3-0.3-5.2-0.9c-4.5-1.5-8-5-10.1-10.2
	c-0.5-1.3-1-3.3-1.3-5.2c-0.3-2-0.3-6.4,0-8.5c1.2-8.1,5.2-14.2,10.8-17.1c5.2-2.6,10.8-2.1,15.9,1.3c4.9,3.3,6.6,8.1,4.4,12.6
	c-0.7,1.5-1.7,2.4-3.1,3.1c-0.9,0.4-1.2,0.5-2.2,0.6c-1.4,0.1-2.4-0.1-3.6-0.7c-2.1-1.1-3.4-3.4-3.4-6.1c0-1.2,0.2-1.8,0.7-2.3
	c0.7-0.6,1.4-0.4,2,0.8c0.4,0.7,0.3,1-0.3,1c-0.3,0-0.3,0-0.2,0.6c0.4,2,1.7,3.4,3.4,3.7c2,0.4,3.9-1.2,4.3-3.8c0.5-2.9-1.8-6-6-8.1
	c-2.4-1.2-3.3-1.4-5.6-1.4c-2.1,0-3.1,0.2-4.9,1c-8.4,3.5-13,16.9-9.4,27.6c0.4,1.1,1.3,3,2,4.1c0.9,1.3,2.7,3.1,4,4
	c3.4,2.2,8.2,2.9,12.2,1.8c1.5-0.4,3.2-1.2,3.4-1.6c0.1-0.2,0.3-0.3,0.5-0.3c0.5,0,2.4-1.6,3.6-3c4.3-4.8,7.2-12.6,8.6-22.4
	c0.5-4,0.7-5.9,0.7-10.3c0-3.7-0.1-4.5-0.3-6.2c-0.8-5.4-2.1-9-6.6-18.7c-3.4-7.2-4.6-10.1-5.5-13.3c-1-3.3-1.4-6-1.3-8.5l0-1.8
	l-1.3-0.1c-6.2-0.4-12-5.2-14.7-12.4c-2-5.2-2.4-12.1-1-18.9c1.6-8,5.5-15.8,10.3-20.3c4.6-4.3,11.7-7.7,19-9
	c3.6-0.6,7.7-0.5,10.6,0.4c1.1,0.3,3.1,1.2,4,1.8l0.4,0.3l0-1.8c0-2,0.2-3.6,0.8-5.5c1.5-5.3,4.4-10.1,7.5-12.6
	c3.3-2.6,6.9-3.3,10.8-2.1c5.6,1.8,10.9,7.8,12.3,14c0.3,1.5,0.3,3.9,0,5.1c-1,3.6-4.1,5.9-8.2,6c-2,0-3.6-0.4-5.3-1.6
	c-1.2-0.8-2-1.5-2.7-2.6c-1.3-2-1.3-3.9,0-5.3c0.9-0.9,1.4-1.1,3-1.1c1.4,0,1.4,0,2.4,0.5c1.1,0.6,2.3,1.6,2.5,2.3
	c0.3,0.9-0.1,0.9-1.8,0.3c-2-0.8-3.2-0.9-3.9-0.3c-1.3,1,1.8,4.1,4.7,4.6c1.6,0.3,3.7-0.3,4.9-1.4c1.2-1,1.8-3,1.5-5.1
	c-0.8-5.5-5.4-11.3-10.5-13.1c-1.3-0.5-3.5-0.6-4.8-0.3c-3.4,0.9-6.6,4.1-9,9c-2.2,4.5-2.9,8.4-2.3,11.8c0.2,1,0.3,1.3,0.8,2.1
	c0.6,0.9,1.3,2.4,1.5,3.4c0.3,1,2.4,3.1,4.5,4.5c0.4,0.3,1.4,0.8,2.2,1.2c6.8,3.3,15.8,3.2,22.8-0.2c1.8-0.9,4.1-2.4,5.2-3.5
	c1.7-1.7,3.1-4.4,3.8-7.4c0.7-2.8,0.9-5.2,1.2-11.9c0.3-7.9,0.8-10.6,2-13.7c1.9-4.7,6.1-7.4,11.7-7.6
	C1010.6,247.5,1011.6,247.5,1012,247.6z"/>
</svg>
