<svg width="549" height="39" viewBox="0 0 549 39" fill="none" xmlns="http://www.w3.org/2000/svg">
<path d="M2 19.5C6.00814 18.1528 15.1599 17.9844 18.5 19.5C15.1599 21.0156 6.00814 20.8472 2 19.5Z" fill="#C77C50"/>
<path d="M47.4101 19.5H548.5M47.4101 19.5C26.7013 19.5 19.6393 7.63157 26.0333 3.33344C32.0458 -0.708201 38.503 1.31262 40.7297 3.33344M47.4101 19.5C26.7013 19.5 19.6383 31.3684 26.0323 35.6666C32.0448 39.7082 38.502 37.6874 40.7287 35.6666M47.4101 19.5H28.0366M2 19.5C6.00814 18.1528 15.1599 17.9844 18.5 19.5M2 19.5H28.0366M2 19.5C6.00814 20.8472 15.1599 21.0156 18.5 19.5M18.5 19.5H28.0366" stroke="#C77C50"/>
</svg>
