<svg width="549" height="39" viewBox="0 0 549 39" fill="none" xmlns="http://www.w3.org/2000/svg">
<path d="M546.5 19.5C542.492 18.1528 533.34 17.9844 530 19.5C533.34 21.0156 542.492 20.8472 546.5 19.5Z" fill="#C77C50"/>
<path d="M501.09 19.5H0M501.09 19.5C521.799 19.5 528.861 7.63157 522.467 3.33344C516.454 -0.708201 509.997 1.31262 507.77 3.33344M501.09 19.5C521.799 19.5 528.862 31.3684 522.468 35.6666C516.455 39.7082 509.998 37.6874 507.771 35.6666M501.09 19.5H520.463M546.5 19.5C542.492 18.1528 533.34 17.9844 530 19.5M546.5 19.5H520.463M546.5 19.5C542.492 20.8472 533.34 21.0156 530 19.5M530 19.5H520.463" stroke="#C77C50"/>
</svg>
