<?xml version="1.0" encoding="utf-8"?>
<!-- Generator: Adobe Illustrator 24.1.2, SVG Export Plug-In . SVG Version: 6.00 Build 0)  -->
<svg version="1.1" id="Слой_1" xmlns="http://www.w3.org/2000/svg" xmlns:xlink="http://www.w3.org/1999/xlink" x="0px" y="0px"
	 viewBox="0 0 120 60" style="enable-background:new 0 0 120 60;" xml:space="preserve">
<style type="text/css">
	.st0{fill:#503C49;}
	.st1{fill-rule:evenodd;clip-rule:evenodd;fill:#503C49;}
</style>
<path class="st0" d="M7.2,32.7c-1.3,0.2-2,0.8-2,1.8c0,0.4,0.3,1.2,1,2.3c0.7,1.1,1,2,1,2.6c0,0.8-0.3,1.6-0.8,2.4
	c-0.6,0.8-1.5,1.2-2.8,1.2c-0.9,0-1.6-0.2-2.2-0.7c-0.6-0.6-1-1.4-1.2-2.5h0.4c0.1,0.8,0.4,1.4,0.8,1.9c0.4,0.5,0.8,0.8,1.2,0.8
	c0.3,0,0.5-0.1,0.6-0.2c0.1-0.1,0.2-0.3,0.2-0.5c0-0.2-0.2-0.5-0.5-1c-0.4-0.5-0.7-1-0.9-1.4c-0.2-0.4-0.3-1-0.3-1.7
	c0-1.9,0.7-3.3,2.2-4.2c1.5-0.9,3.3-1.3,5.5-1.3c1.9,0,3.5,0.4,4.9,1.1c1.4,0.8,2.5,1.8,3.2,3.2c0.7,1.3,1.1,2.9,1.1,4.7
	c0,1.5-0.3,2.8-1,4.1c-0.7,1.3-1.6,2.3-2.9,3.1c-1.2,0.7-2.6,1.1-4,1.1c-1.3,0-2.4-0.2-3.3-0.7c-0.9-0.5-1.8-1.1-2.8-1.9
	c-1-0.8-1.7-1.1-2.1-1.1c-0.6,0-1.1,0.1-1.4,0.4c-0.3,0.3-0.5,0.7-0.6,1.3H0c0.1-0.7,0.4-1.4,0.9-2c0.5-0.6,1.1-1.2,1.9-1.6
	c0.8-0.4,1.7-0.6,2.7-0.6c0.4,0,1,0.2,1.7,0.5c0.7,0.3,1.6,0.8,2.8,1.4c1.1,0.6,2,1,2.6,1.3c0.6,0.3,1.1,0.4,1.6,0.4
	c1.2,0,2.1-0.5,2.8-1.4c0.7-0.9,1.1-2,1.1-3.2c0-0.8-0.1-1.5-0.4-2.1c-0.3-0.6-0.6-1.2-1.1-1.6c-0.5-0.4-1.1-0.8-1.8-1
	C14,37.2,13.3,37,12.5,37c-0.8,0-1.7,0-2.7,0.1c-2-0.1-3.1-0.9-3.2-2.4C6.6,34.1,6.8,33.4,7.2,32.7z"/>
<path class="st0" d="M24,37.9v5.4c0,0.9,0.3,1.6,0.9,2.2c0.6,0.6,1.3,1,2.1,1c0.7,0,1.5-0.3,2.2-0.8l0.2,0.3
	c-2.3,1.3-3.9,2.5-4.8,3.4c-0.9-0.5-1.6-1-2.1-1.3c-0.6-0.4-0.9-0.7-1.2-0.9c-0.2-0.2-0.4-0.5-0.4-0.9c-0.1-0.4-0.1-0.9-0.1-1.8
	v-2.8c0-1,0.1-1.8,0.3-2.4c0.2-0.6,0.6-0.9,1.1-1.2l5.2-1.8l1.8,3.6l-3,1.6l-1.8-3.9L24,37.9z"/>
<path class="st0" d="M31.2,39.8h-1.5v-0.3c0.9-0.2,1.8-0.9,2.7-2.2c0.9-1.2,1.5-2.6,1.9-4.1h0.4V38h2.5v1.7h-2.5v4.8
	c0,1.2,0.3,1.8,0.9,1.8c0.5,0,1-0.3,1.5-0.7l0.2,0.2c-2.1,1.9-3.4,3-4,3.5c-0.4-0.6-0.9-1.1-1.6-1.6c-0.7-0.5-1.3-0.8-1.9-0.9v-0.4
	c0.1,0,0.3,0,0.5,0.1c0.3,0,0.5-0.1,0.5-0.3c0.1-0.1,0.1-0.4,0.1-0.7V39.8z"/>
<path class="st0" d="M39.2,38.6c1.5,0,2.7-0.1,3.8-0.4c1.1-0.3,2.1-0.8,2.8-1.6c0.9,0.6,1.6,1.3,1.9,2c0.4,0.7,0.5,1.8,0.5,3.1v0.9
	c0,1.3-0.1,2.3-0.2,2.9c-0.1,0.6-0.4,1.1-0.8,1.4c-0.4,0.3-1,0.5-1.9,0.7c-0.4,0-0.8,0.2-1.3,0.6c-0.4,0.3-0.8,0.8-1.1,1.3
	c-1.3-1.3-2.9-2.2-4.8-2.8v-0.3c0.6,0,0.9-0.4,0.9-1V38.6z M44.8,40.8c0-0.7-0.1-1.2-0.4-1.5c-0.3-0.3-0.8-0.5-1.6-0.7v6.8
	c0.4,0.2,1.1,0.7,2,1.4V40.8z"/>
<path class="st0" d="M54.6,38.9l3.6-2.4l1,1.1c0.6,0.7,0.9,1.6,1,2.5v4.3c0,0.8-0.2,1.4-0.5,1.8c-0.3,0.4-1,0.9-2.1,1.4
	c-0.4,0.2-0.8,0.4-1.4,0.6c-0.5,0.2-0.9,0.4-1.2,0.6c-0.3,0.2-0.5,0.4-0.7,0.7c-1.5-1.5-3-2.5-4.5-3v-0.3c0.8,0,1.2-0.4,1.2-1.3
	v-7.8c0-0.7-0.2-1.4-0.5-2.2c-0.3-0.8-0.6-1.3-1-1.6l0.3-0.2c0.5,0.5,0.9,1.2,1.2,2.1h0c0.1-1.1,0.7-1.9,1.8-2.4
	c1.1-0.5,2.4-0.7,3.9-0.8h0.6v0.4c-1-0.1-1.6,0.1-2.1,0.5c-0.4,0.4-0.6,1.1-0.6,2.1V38.9z M56.6,40.5c0-1.1-0.3-1.6-0.8-1.6
	c-0.3,0-0.7,0.2-1.2,0.6v6l2,1.8V40.5z"/>
<path class="st0" d="M68.4,36.5l2.6,4.2L65.7,44c0.6,1.8,1.7,2.6,3.3,2.6c0.5,0,1.2-0.3,2.1-1l0.2,0.3c-0.5,0.4-1.1,0.8-1.8,1.3
	c-0.7,0.5-1.3,0.9-1.7,1.3c-0.4,0.3-0.8,0.6-1.1,1c-1.7-0.6-2.9-1.4-3.5-2.2c-0.7-0.8-1-1.9-1-3.3v-1.8c0.1-1,0.1-1.7,0.2-2.1
	c0.1-0.4,0.3-0.8,0.7-1.2c0.4-0.4,1.1-0.7,2.1-1.1L68.4,36.5z M65.6,38.1L65.6,38.1l0,5.5l2.3-1.5L65.6,38.1z"/>
<path class="st0" d="M76.9,39.6l3.1-3l2,3.2l-2.5,2.6l-1.8-3.1l-0.8,0.7v5.1c0,0.4,0.1,0.7,0.4,1.1c0.3,0.3,0.6,0.5,1,0.5
	c0.4,0,1.2-0.4,2.2-1.2l0.2,0.3l-4.6,3.7c-1.7-1.5-3.1-2.4-4.3-2.6v-0.3c1.1,0,1.6-0.3,1.6-1v-4.8c0-0.8-0.3-1.2-0.8-1.2
	c-0.4,0-0.7,0.2-1,0.5l-0.2-0.4l3.5-3.1C76.2,37.3,76.9,38.4,76.9,39.6z"/>
<path class="st0" d="M82.1,39.8v-0.5c0.4,0,0.7-0.1,0.9-0.3c0.2-0.2,0.3-0.4,0.4-0.8c0-0.4,0.1-1,0.1-1.8c0-1.3,0.1-2.1,0.2-2.5
	c0.4-1.1,1-1.7,1.9-1.8c0.4,0,0.8,0.1,1.1,0.3c0.4,0.2,0.7,0.5,1,0.8c0.3,0.3,0.5,0.5,0.6,0.5c0.2,0,0.4-0.6,0.4-1.6H89
	c0,0.2,0,0.3,0,0.5c0,0.2,0,0.4,0,0.7c0,0.9-0.2,1.6-0.5,2.1c-0.4,0.5-0.8,0.8-1.5,0.8c-0.4,0-1-0.2-1.5-0.6c-0.6-0.4-1-0.6-1.2-0.6
	c-0.2,0-0.3,0.2-0.4,0.5c0.2,0.8,0.7,1.4,1.4,1.8c0.8,0.4,1.6,0.7,2.6,0.7h1.4v1.7h-1.6c0,0.8-0.1,2.1-0.4,4.1
	c-0.2,1.9-0.5,3.8-0.8,5.5c-0.3,1.7-0.6,3.5-0.9,5.3h-0.3c-0.4-1.9-0.7-4.5-1.2-7.9c-0.4-3.3-0.7-5.6-0.7-6.9H82.1z"/>
<path class="st0" d="M97,36.5l2.6,4.2L94.4,44c0.6,1.8,1.7,2.6,3.3,2.6c0.5,0,1.2-0.3,2.1-1l0.2,0.3c-0.5,0.4-1.1,0.8-1.8,1.3
	c-0.7,0.5-1.3,0.9-1.7,1.3c-0.4,0.3-0.8,0.6-1.1,1c-1.7-0.6-2.9-1.4-3.5-2.2c-0.7-0.8-1-1.9-1-3.3v-1.8c0.1-1,0.1-1.7,0.2-2.1
	c0.1-0.4,0.3-0.8,0.7-1.2c0.4-0.4,1.1-0.7,2.1-1.1L97,36.5z M94.3,38.1L94.3,38.1l0,5.5l2.3-1.5L94.3,38.1z"/>
<path class="st0" d="M102.4,36.5c0-1,0.5-1.8,1.2-2.4c0.8-0.6,1.7-0.9,2.9-0.9c0.7,0,1.4,0.2,2,0.5c0.7,0.3,1.2,0.8,1.6,1.4
	c0.4,0.6,0.6,1.3,0.6,2.1c0,0.5-0.1,1-0.3,1.3c-0.2,0.3-0.5,0.7-0.9,1.2c-0.4,0.5-0.6,0.8-0.6,1c0.4,0,0.8,0.2,1.2,0.4
	c0.4,0.3,0.7,0.6,0.9,1c0.2,0.4,0.3,0.9,0.3,1.3c0,0.8-0.2,1.4-0.5,1.8c-0.3,0.4-0.9,1.1-1.8,1.9c-0.9,0.8-1.7,1.7-2.4,2.5
	c-0.6-0.4-1.3-0.7-2.1-0.9c-0.8-0.3-1.6-0.4-2.4-0.4c-0.6,0-1,0.2-1.2,0.7l-0.3-0.2c1.1-1.5,1.9-2.7,2.3-3.6c-1.3-0.6-2-1.5-2.1-2.7
	c0-0.6,0.2-1.1,0.6-1.6c0.4-0.5,0.9-1.1,1.6-1.7c0.8-0.6,1.3-1.1,1.7-1.5c0.4-0.3,0.6-0.7,0.8-1.2c0.7,0.8,1.4,1.3,2.3,1.3
	c1.3-0.2,2-0.7,2-1.7c0-0.7-0.4-1.3-1.1-1.8c-0.7-0.5-1.5-0.7-2.4-0.8c-0.9,0-1.7,0.3-2.4,0.8c-0.7,0.5-1.1,1.2-1.2,2.1H102.4z
	 M103.9,39.1c-0.3,0.1-0.4,0.4-0.5,1c0.1,1.5,0.9,2.4,2.3,2.7c0.5,0,1.1-0.2,1.6-0.6c0.6-0.4,1-0.9,1.3-1.6l0-0.1
	c-0.4,0.2-0.8,0.3-1.3,0.4c-0.6,0-1.2-0.2-1.9-0.6C104.7,39.9,104.2,39.5,103.9,39.1z M108.4,47.2c0.2-0.3,0.3-0.7,0.3-1.3
	c0-0.7-0.2-1.4-0.6-1.9c-0.4-0.6-0.9-0.8-1.6-0.9c-1.3,0-2.4,0.7-3.3,2.3C105.1,45.5,106.8,46,108.4,47.2z"/>
<path class="st0" d="M113.8,39.8h-1.5v-0.3c0.9-0.2,1.8-0.9,2.7-2.2c0.9-1.2,1.5-2.6,1.9-4.1h0.4V38h2.5v1.7h-2.5v4.8
	c0,1.2,0.3,1.8,0.9,1.8c0.5,0,1-0.3,1.5-0.7L120,46c-2.1,1.9-3.4,3-4,3.5c-0.4-0.6-0.9-1.1-1.6-1.6c-0.7-0.5-1.3-0.8-1.9-0.9v-0.4
	c0.1,0,0.3,0,0.5,0.1c0.3,0,0.5-0.1,0.5-0.3c0.1-0.1,0.1-0.4,0.1-0.7V39.8z"/>
<path class="st1" d="M39,20.8H21.7v-0.5H39V20.8z"/>
<path class="st1" d="M39,12.2H21.7v-0.5H39V12.2z"/>
<path class="st0" d="M25.9,18l0,0.4h-2.2v-3.8h2.2v0.4h-1.7v1.2h1.4v0.4h-1.4V18H25.9z"/>
<path class="st0" d="M29.1,15.2C29.1,15.3,29.1,15.3,29.1,15.2c-0.1,0.1-0.1,0.1-0.1,0.1c0,0-0.1,0-0.1,0c0,0-0.1-0.1-0.1-0.1
	c-0.1,0-0.1-0.1-0.2-0.1c-0.1,0-0.2,0-0.3,0c-0.1,0-0.2,0-0.3,0c-0.1,0-0.2,0.1-0.2,0.1c-0.1,0.1-0.1,0.1-0.1,0.2c0,0.1,0,0.1,0,0.2
	c0,0.1,0,0.2,0.1,0.3c0.1,0.1,0.1,0.1,0.2,0.2c0.1,0,0.2,0.1,0.3,0.1c0.1,0,0.2,0.1,0.3,0.1c0.1,0,0.2,0.1,0.3,0.1
	c0.1,0,0.2,0.1,0.3,0.2c0.1,0.1,0.1,0.2,0.2,0.3c0.1,0.1,0.1,0.2,0.1,0.4c0,0.2,0,0.3-0.1,0.5c-0.1,0.1-0.1,0.3-0.2,0.4
	c-0.1,0.1-0.2,0.2-0.4,0.3c-0.1,0.1-0.3,0.1-0.5,0.1c-0.2,0-0.4,0-0.6-0.1c-0.2-0.1-0.4-0.2-0.5-0.4l0.1-0.2c0,0,0,0,0,0
	c0,0,0,0,0.1,0c0,0,0,0,0.1,0c0,0,0.1,0,0.1,0.1c0,0,0.1,0.1,0.1,0.1c0,0,0.1,0.1,0.2,0.1c0.1,0,0.1,0.1,0.2,0.1c0.1,0,0.2,0,0.2,0
	c0.1,0,0.2,0,0.3,0c0.1,0,0.2-0.1,0.2-0.1c0.1-0.1,0.1-0.1,0.1-0.2c0-0.1,0.1-0.2,0.1-0.3c0-0.1,0-0.2-0.1-0.3
	c0-0.1-0.1-0.1-0.2-0.2c-0.1,0-0.2-0.1-0.3-0.1c-0.1,0-0.2-0.1-0.3-0.1c-0.1,0-0.2-0.1-0.3-0.1c-0.1,0-0.2-0.1-0.3-0.2
	c-0.1-0.1-0.1-0.2-0.2-0.3c0-0.1-0.1-0.3-0.1-0.4c0-0.1,0-0.3,0.1-0.4c0.1-0.1,0.1-0.2,0.2-0.3c0.1-0.1,0.2-0.2,0.3-0.2
	c0.1-0.1,0.3-0.1,0.5-0.1c0.2,0,0.4,0,0.5,0.1c0.2,0.1,0.3,0.2,0.4,0.3L29.1,15.2z"/>
<path class="st0" d="M33.2,15.1H32v3.3h-0.5v-3.3h-1.2v-0.4h2.8V15.1z"/>
<path class="st0" d="M37.5,16.5c0,0.3,0,0.5-0.1,0.8c-0.1,0.2-0.2,0.4-0.4,0.6c-0.2,0.2-0.3,0.3-0.6,0.4c-0.2,0.1-0.5,0.1-0.7,0.1
	h-1.3v-3.8h1.3c0.3,0,0.5,0,0.7,0.1c0.2,0.1,0.4,0.2,0.6,0.4c0.2,0.2,0.3,0.4,0.4,0.6C37.5,16,37.5,16.2,37.5,16.5z M37,16.5
	c0-0.2,0-0.4-0.1-0.6c-0.1-0.2-0.1-0.3-0.3-0.5c-0.1-0.1-0.2-0.2-0.4-0.3c-0.2-0.1-0.3-0.1-0.5-0.1h-0.9V18h0.9c0.2,0,0.4,0,0.5-0.1
	c0.2-0.1,0.3-0.2,0.4-0.3c0.1-0.1,0.2-0.3,0.3-0.5C37,17,37,16.8,37,16.5z"/>
<path class="st1" d="M93.8,20.8H76.5v-0.5h17.3V20.8z"/>
<path class="st1" d="M93.8,12.2H76.5v-0.5h17.3V12.2z"/>
<path class="st0" d="M81.1,17.6v0.3h-1.9v-0.3H80v-2.2c0-0.1,0-0.1,0-0.2l-0.6,0.5c0,0,0,0-0.1,0c0,0,0,0-0.1,0c0,0,0,0-0.1,0
	c0,0,0,0,0,0L79,15.5l1-0.8h0.4v3H81.1z"/>
<path class="st0" d="M83.5,17.6c0.1,0,0.2,0,0.3,0c0.1,0,0.2-0.1,0.2-0.1c0.1-0.1,0.1-0.1,0.1-0.2c0-0.1,0.1-0.2,0.1-0.3
	c0-0.1,0-0.2-0.1-0.3c0-0.1-0.1-0.1-0.2-0.2c-0.1-0.1-0.1-0.1-0.2-0.1c-0.1,0-0.2,0-0.3,0c-0.1,0-0.2,0-0.3,0
	c-0.1,0-0.2,0.1-0.2,0.1c-0.1,0.1-0.1,0.1-0.2,0.2c0,0.1-0.1,0.2-0.1,0.3c0,0.1,0,0.2,0,0.3c0,0.1,0.1,0.1,0.1,0.2
	c0.1,0.1,0.1,0.1,0.2,0.1C83.3,17.6,83.4,17.6,83.5,17.6z M83.5,14.9c-0.1,0-0.2,0-0.3,0c-0.1,0-0.1,0.1-0.2,0.1
	C83,15.1,83,15.2,83,15.3c0,0.1,0,0.1,0,0.2c0,0.1,0,0.1,0,0.2c0,0.1,0.1,0.1,0.1,0.2c0.1,0.1,0.1,0.1,0.2,0.1c0.1,0,0.2,0,0.3,0
	c0.1,0,0.2,0,0.3,0c0.1,0,0.1-0.1,0.2-0.1c0.1-0.1,0.1-0.1,0.1-0.2c0-0.1,0-0.1,0-0.2c0-0.1,0-0.1,0-0.2c0-0.1-0.1-0.1-0.1-0.2
	C84,15,83.9,15,83.8,15C83.7,14.9,83.7,14.9,83.5,14.9z M84,16.2c0.2,0.1,0.4,0.2,0.5,0.3c0.1,0.1,0.2,0.3,0.2,0.5
	c0,0.1,0,0.3-0.1,0.4c-0.1,0.1-0.1,0.2-0.2,0.3c-0.1,0.1-0.2,0.1-0.4,0.2c-0.1,0-0.3,0.1-0.5,0.1c-0.2,0-0.3,0-0.5-0.1
	c-0.1,0-0.3-0.1-0.4-0.2s-0.2-0.2-0.2-0.3c-0.1-0.1-0.1-0.2-0.1-0.4c0-0.2,0.1-0.4,0.2-0.5c0.1-0.1,0.3-0.2,0.5-0.3
	c-0.2-0.1-0.3-0.2-0.4-0.3c-0.1-0.1-0.1-0.3-0.1-0.5c0-0.1,0-0.2,0.1-0.3c0.1-0.1,0.1-0.2,0.2-0.3c0.1-0.1,0.2-0.1,0.3-0.2
	c0.1,0,0.3-0.1,0.4-0.1c0.2,0,0.3,0,0.4,0.1c0.1,0,0.2,0.1,0.3,0.2c0.1,0.1,0.2,0.2,0.2,0.3c0.1,0.1,0.1,0.2,0.1,0.3
	c0,0.2,0,0.3-0.1,0.5C84.4,16.1,84.2,16.1,84,16.2z"/>
<path class="st0" d="M88.1,17.6v0.3h-1.9v-0.3H87v-2.2c0-0.1,0-0.1,0-0.2l-0.6,0.5c0,0,0,0-0.1,0c0,0,0,0-0.1,0c0,0,0,0-0.1,0
	c0,0,0,0,0,0L86,15.5l1-0.8h0.4v3H88.1z"/>
<path class="st0" d="M91.9,16.3c0,0.3,0,0.5-0.1,0.7c-0.1,0.2-0.2,0.4-0.3,0.5c-0.1,0.1-0.2,0.2-0.4,0.3c-0.2,0.1-0.3,0.1-0.5,0.1
	c-0.2,0-0.3,0-0.5-0.1c-0.2-0.1-0.3-0.2-0.4-0.3c-0.1-0.1-0.2-0.3-0.3-0.5c-0.1-0.2-0.1-0.5-0.1-0.7c0-0.3,0-0.5,0.1-0.7
	c0.1-0.2,0.2-0.4,0.3-0.5c0.1-0.1,0.2-0.2,0.4-0.3c0.2-0.1,0.3-0.1,0.5-0.1c0.2,0,0.3,0,0.5,0.1c0.2,0.1,0.3,0.2,0.4,0.3
	c0.1,0.1,0.2,0.3,0.3,0.5C91.8,15.7,91.9,16,91.9,16.3z M91.4,16.3c0-0.3,0-0.5-0.1-0.6c0-0.2-0.1-0.3-0.2-0.4
	c-0.1-0.1-0.2-0.2-0.3-0.2c-0.1,0-0.2-0.1-0.3-0.1s-0.2,0-0.3,0.1c-0.1,0-0.2,0.1-0.3,0.2c-0.1,0.1-0.1,0.2-0.2,0.4
	c0,0.2-0.1,0.4-0.1,0.6c0,0.3,0,0.5,0.1,0.6c0,0.2,0.1,0.3,0.2,0.4c0.1,0.1,0.2,0.2,0.3,0.2c0.1,0,0.2,0.1,0.3,0.1s0.2,0,0.3-0.1
	c0.1,0,0.2-0.1,0.3-0.2c0.1-0.1,0.1-0.2,0.2-0.4C91.4,16.7,91.4,16.5,91.4,16.3z"/>
<path class="st1" d="M105.2,27.8H10.9v-1h94.3V27.8z"/>
<path class="st1" d="M39,58H10.9v-0.5H39V58z"/>
<path class="st1" d="M105.2,58H76.5v-0.5h28.6V58z"/>
<path class="st0" d="M44.4,57v1.2h1.5v0.4h-1.5V60H44v-3.3h2.2V57H44.4z"/>
<path class="st0" d="M49.8,59.6l0,0.4h-2.2v-3.3h2.2V57H48v1.1h1.4v0.4H48v1.1H49.8z"/>
<path class="st0" d="M53,57.1C53,57.2,53,57.2,53,57.1c-0.1,0.1-0.1,0.1-0.1,0.1c0,0-0.1,0-0.1,0s-0.1-0.1-0.1-0.1
	c-0.1,0-0.1-0.1-0.2-0.1c-0.1,0-0.2,0-0.3,0c-0.1,0-0.2,0-0.3,0c-0.1,0-0.2,0.1-0.2,0.1c-0.1,0-0.1,0.1-0.1,0.2c0,0.1,0,0.1,0,0.2
	c0,0.1,0,0.2,0.1,0.2c0.1,0.1,0.1,0.1,0.2,0.2c0.1,0,0.2,0.1,0.3,0.1c0.1,0,0.2,0.1,0.3,0.1c0.1,0,0.2,0.1,0.3,0.1
	c0.1,0,0.2,0.1,0.3,0.2c0.1,0.1,0.1,0.1,0.2,0.2c0.1,0.1,0.1,0.2,0.1,0.3c0,0.1,0,0.3-0.1,0.4c-0.1,0.1-0.1,0.2-0.2,0.3
	c-0.1,0.1-0.2,0.2-0.4,0.2C52.4,60,52.2,60,52,60c-0.2,0-0.5,0-0.6-0.1c-0.2-0.1-0.4-0.2-0.5-0.3l0.1-0.2c0,0,0,0,0,0c0,0,0,0,0.1,0
	c0,0,0,0,0.1,0c0,0,0.1,0,0.1,0.1c0,0,0.1,0.1,0.1,0.1c0,0,0.1,0.1,0.2,0.1c0.1,0,0.1,0,0.2,0.1c0.1,0,0.2,0,0.3,0
	c0.1,0,0.2,0,0.3,0c0.1,0,0.2-0.1,0.2-0.1c0.1-0.1,0.1-0.1,0.1-0.2c0-0.1,0.1-0.2,0.1-0.2c0-0.1,0-0.2-0.1-0.2
	c0-0.1-0.1-0.1-0.2-0.2c-0.1,0-0.2-0.1-0.3-0.1c-0.1,0-0.2-0.1-0.3-0.1c-0.1,0-0.2-0.1-0.3-0.1c-0.1,0-0.2-0.1-0.3-0.2
	c-0.1-0.1-0.1-0.2-0.2-0.2c0-0.1-0.1-0.2-0.1-0.4c0-0.1,0-0.2,0.1-0.3c0.1-0.1,0.1-0.2,0.2-0.3c0.1-0.1,0.2-0.2,0.4-0.2
	c0.1-0.1,0.3-0.1,0.5-0.1c0.2,0,0.4,0,0.6,0.1c0.2,0.1,0.3,0.1,0.4,0.3L53,57.1z"/>
<path class="st0" d="M57.1,57h-1.2v3h-0.5v-3h-1.2v-0.4h2.9V57z"/>
<path class="st0" d="M60.6,59.6l0,0.4h-2.2v-3.3h2.2V57h-1.8v1.1h1.4v0.4h-1.4v1.1H60.6z"/>
<path class="st0" d="M65,56.6L63.5,60H63l-1.5-3.3H62c0,0,0.1,0,0.1,0c0,0,0,0,0.1,0.1l1,2.4c0,0.1,0,0.1,0.1,0.2
	c0,0.1,0,0.1,0.1,0.2c0-0.1,0-0.1,0.1-0.2c0-0.1,0-0.1,0.1-0.2l1-2.4c0,0,0-0.1,0.1-0.1c0,0,0.1,0,0.1,0H65z"/>
<path class="st0" d="M67.8,58.7l-0.6-1.4c0,0,0-0.1-0.1-0.1c0-0.1,0-0.1-0.1-0.2c0,0.1-0.1,0.2-0.1,0.3l-0.6,1.4H67.8z M68.8,60
	h-0.4c0,0-0.1,0-0.1,0c0,0,0,0-0.1-0.1L68,59h-1.6L66,59.9c0,0,0,0.1-0.1,0.1c0,0-0.1,0-0.1,0h-0.4l1.5-3.3h0.5L68.8,60z"/>
<path class="st0" d="M72.1,59.6V60H70v-3.3h0.5v3H72.1z"/>
<path class="st0" d="M57.1,12.9c-0.3,0-0.5,0.2-0.5,0.5v4c0,0.3,0.2,0.5,0.5,0.5c0.3,0,0.5-0.2,0.5-0.5v-4
	C57.6,13.1,57.4,12.9,57.1,12.9z"/>
<path class="st0" d="M54.1,9.4c-0.3,0-0.5,0.2-0.5,0.5v7.4c0,0.3,0.2,0.5,0.5,0.5c0.3,0,0.5-0.2,0.5-0.5V9.9
	C54.6,9.6,54.4,9.4,54.1,9.4z"/>
<path class="st0" d="M65.6,7.9h-1.5V6.1c0.2-0.1,0.4-0.2,0.5-0.4c0.4-0.4,0.6-1,0.5-1.6c-0.1-0.7-0.7-1.4-1.5-1.6c-0.3,0-0.7,0-1,0
	C62.2,1.6,61.2,1,60.1,1c-0.3,0-0.6,0-0.9,0.1C58.6,0.4,57.6,0,56.6,0c-1,0-1.9,0.4-2.5,1c-0.2,0-0.4,0-0.5,0
	c-0.7,0-1.3,0.2-1.8,0.6c-0.4-0.1-0.8-0.1-1.2,0c-0.8,0.2-1.5,0.8-1.6,1.6c-0.1,0.2,0.2,0.5,0.5,0.5c0.3,0,0.5-0.1,0.6-0.4
	c0.1-0.4,0.4-0.7,0.8-0.8c0.3,0,0.5,0,0.7,0.1c0.2,0.1,0.5,0.1,0.6,0C52.6,2.2,53.1,2,53.6,2c0.2,0,0.4,0,0.6,0.1
	c0.2,0,0.4,0,0.5-0.1c0.5-0.6,1.2-0.9,2-0.9c0.8,0,1.6,0.4,2.1,1c0.2,0.2,0.4,0.2,0.6,0.1c1.1-0.5,2.4,0,2.8,1.1
	c0.1,0.1,0.2,0.2,0.3,0.3c0.2,0,0.3,0,0.4,0c0.3-0.1,0.5-0.1,0.7,0c0.4,0,0.7,0.4,0.7,0.7c0.1,0.3-0.1,0.6-0.3,0.8
	c-0.4,0.4-1.1,0.4-1.5,0C62.3,5,62.2,5,62,5c-0.2,0-0.3,0-0.4,0.2c-0.5,0.5-1.2,0.8-1.8,0.7c-0.5,0-0.9,0-1.3,0.3
	c-0.3,0.3-0.5,0.7-0.5,1.1v3c0,0.1-0.1,0.3-0.2,0.4c-0.1,0.1-0.3,0.1-0.4,0.1c-0.3,0-0.4-0.3-0.4-0.5V7.3c0-0.7-0.5-1.2-1.2-1.4
	c-0.3,0-0.5-0.1-0.7-0.3c-0.2-0.1-0.4-0.1-0.6,0c-0.4,0.3-0.8,0.4-1.2,0.4c-0.7,0-1.3-0.3-1.6-0.8c-0.4-0.4-0.9-0.7-1.4-0.7
	c-0.3,0-0.5,0.2-0.5,0.5v12.7c0,0.4-0.1,0.7-0.2,1.1l-0.3,0.7c0,0.2-0.1,0.3-0.1,0.5c0,1,0.8,1.8,1.8,1.8h11.4c1,0,1.8-0.8,1.8-1.8
	c0-0.2-0.1-0.4-0.1-0.5l-0.3-0.7c-0.1-0.3-0.2-0.7-0.2-1.1v-0.8c0-0.5,0.5-1,1-1h0.5c0.9,0,1.5-0.6,1.5-1.5V9.4
	C67.1,8.6,66.5,7.9,65.6,7.9z M66.1,14.3c0,0.3-0.2,0.5-0.5,0.5h-0.5c-0.4,0-0.7,0.1-1,0.3v-4.7c0-0.3-0.2-0.5-0.5-0.5
	s-0.5,0.2-0.5,0.5v7.3c0,0.5,0.1,0.9,0.3,1.4l0.3,0.7c0.1,0.1,0.1,0.1,0.1,0.2c0,0.4-0.4,0.8-0.8,0.8H51.4c-0.5,0-0.8-0.3-0.8-0.8
	c0-0.1,0-0.1,0.1-0.2l0.3-0.7c0.1-0.4,0.2-0.9,0.2-1.4v-12c0.1,0,0.1,0,0.1,0.1c0.6,0.7,1.5,1.2,2.4,1.2c0.5,0,1-0.1,1.5-0.3
	c0.2,0.1,0.5,0.2,0.7,0.2c0.3,0,0.4,0.2,0.4,0.5v3.1c0,0.7,0.6,1.4,1.3,1.5c0.1,0,0.2,0,0.3,0c0.4,0,0.7-0.1,1-0.3
	c0.4-0.3,0.6-0.7,0.6-1.1v-3c0-0.2,0.1-0.3,0.2-0.3c0.1-0.1,0.3-0.1,0.5-0.1c0.2,0,0.3,0,0.4,0c0.8,0,1.5-0.3,2-0.7
	c0.3,0.2,0.7,0.2,1,0.2v2c0,0.3,0.2,0.5,0.5,0.5h2c0.3,0,0.5,0.2,0.5,0.5V14.3z"/>
<path class="st0" d="M60.1,9.4c-0.3,0-0.5,0.2-0.5,0.5v7.4c0,0.3,0.2,0.5,0.5,0.5c0.3,0,0.5-0.2,0.5-0.5V9.9
	C60.6,9.6,60.4,9.4,60.1,9.4z"/>
</svg>
