<svg width="193" height="98" viewBox="0 0 193 98" fill="none" xmlns="http://www.w3.org/2000/svg">
<path d="M11.6407 53.2951C9.54047 53.6287 8.49038 54.6297 8.49038 56.2979C8.49038 56.9909 9.01542 58.2228 10.0655 59.9938C11.1156 61.7647 11.6407 63.1763 11.6407 64.2286C11.6407 65.5889 11.1924 66.885 10.296 68.1169C9.3996 69.3489 7.88849 70.0162 5.7627 70.1189C4.37965 70.1959 3.17589 69.798 2.15141 68.9254C1.12693 68.0271 0.486628 66.6925 0.230508 64.9216H0.845196C1.0757 66.1535 1.4855 67.1801 2.07457 68.0014C2.68926 68.7971 3.35517 69.2334 4.07231 69.3104C4.55894 69.2334 4.9047 69.1307 5.10959 69.0024C5.31449 68.8484 5.44255 68.5661 5.49377 68.1554C5.49377 67.8988 5.19924 67.3598 4.61016 66.5385C4.02108 65.6915 3.54726 64.9216 3.18869 64.2286C2.85574 63.51 2.68926 62.5732 2.68926 61.4182C2.68926 58.3127 3.88022 56.0284 6.26213 54.5655C8.64405 53.1026 11.615 52.3711 15.1751 52.3711C18.1717 52.3711 20.7969 52.9871 23.0508 54.219C25.3047 55.451 27.0207 57.1706 28.1988 59.3778C29.4026 61.5594 30.0045 64.0874 30.0045 66.962C30.0045 69.3489 29.4538 71.5946 28.3525 73.6992C27.2512 75.8038 25.7144 77.472 23.7423 78.704C21.7702 79.9103 19.606 80.5134 17.2497 80.5134C15.1495 80.5134 13.3695 80.1156 11.9096 79.32C10.4753 78.5243 8.95139 77.5105 7.33784 76.2786C5.74989 75.0466 4.61016 74.4307 3.91864 74.4307C2.89416 74.4307 2.16421 74.6488 1.72881 75.0851C1.31902 75.4958 0.998868 76.2273 0.76836 77.2796H0C0.153672 76.1246 0.627494 75.0338 1.42147 74.0072C2.21544 72.9549 3.25272 72.1079 4.53332 71.4663C5.83954 70.8247 7.261 70.5038 8.79772 70.5038C9.46363 70.5038 10.3729 70.7605 11.5254 71.2738C12.6779 71.7871 14.1762 72.5314 16.0203 73.5067C17.8644 74.4563 19.2602 75.1365 20.2079 75.5471C21.1811 75.9578 22.0263 76.1759 22.7435 76.2016C24.6131 76.1246 26.1242 75.3803 27.2768 73.9687C28.4549 72.5314 29.0696 70.7733 29.1208 68.6944C29.1208 67.4111 28.9031 66.2562 28.4677 65.2296C28.0579 64.1773 27.4433 63.2918 26.6237 62.5732C25.8297 61.8545 24.8564 61.2899 23.7039 60.8792C22.577 60.4686 21.3604 60.2633 20.0542 60.2633C18.7992 60.2633 17.3649 60.3146 15.7514 60.4173C12.4987 60.2376 10.7698 58.9158 10.5649 56.4519C10.6418 55.451 11.0004 54.3987 11.6407 53.2951Z" fill="#503C49"/>
<path d="M38.6275 61.6877V70.5038C38.6275 71.8898 39.0885 73.1089 40.0105 74.1612C40.9326 75.2135 42.0339 75.7524 43.3145 75.7781C44.5182 75.7011 45.6836 75.2648 46.8105 74.4692L47.1179 75.0081C43.4297 77.1384 40.8301 78.9992 39.319 80.5904C37.936 79.7178 36.7962 78.9991 35.8998 78.4345C35.0034 77.8442 34.3759 77.3566 34.0173 76.9716C33.6844 76.5866 33.4539 76.1118 33.3258 75.5471C33.2234 74.9568 33.1465 74.0072 33.0953 72.6982V68.0784C33.0953 66.3845 33.2362 65.0884 33.5179 64.1901C33.7996 63.2918 34.4143 62.663 35.362 62.3037L43.6602 59.4548L46.5416 65.3066L41.7393 67.8859L38.858 61.6107L38.6275 61.6877Z" fill="#503C49"/>
<path d="M50.1241 64.7291H47.7422V64.2671C49.2533 63.9078 50.7132 62.7272 52.1218 60.7252C53.5561 58.7233 54.5934 56.5161 55.2337 54.1035H55.8868V61.9187H59.8822V64.7291H55.8868V72.5443C55.8868 74.4692 56.3862 75.4701 57.3851 75.5471C58.1278 75.4701 58.9346 75.1108 59.8054 74.4692L60.1128 74.8542C56.7064 77.9084 54.5806 79.7948 53.7354 80.5134C53.1463 79.5381 52.3139 78.6655 51.2382 77.8955C50.1625 77.0999 49.138 76.5866 48.1648 76.3556V75.7781C48.344 75.7781 48.6258 75.8294 49.01 75.9321C49.471 75.8551 49.7655 75.714 49.8936 75.5086C50.0472 75.3033 50.1241 74.9183 50.1241 74.3537V64.7291Z" fill="#503C49"/>
<path d="M63.0157 62.7657C65.372 62.7657 67.4338 62.5218 69.201 62.0342C70.9938 61.5465 72.5178 60.6867 73.7728 59.4548C75.2839 60.4301 76.3211 61.4952 76.8846 62.6502C77.4481 63.8051 77.7298 65.499 77.7298 67.732V69.2334C77.7298 71.415 77.6274 73.0062 77.4225 74.0072C77.2432 75.0082 76.8334 75.7653 76.1931 76.2786C75.5784 76.7662 74.5411 77.1512 73.0812 77.4335C72.4665 77.5105 71.7878 77.8314 71.0451 78.396C70.3279 78.9607 69.7517 79.6921 69.3163 80.5904C67.1905 78.4602 64.6165 76.9331 61.5942 76.0091V75.5471C62.5163 75.4701 62.9901 74.9183 63.0157 73.8917V62.7657ZM72.0439 66.3845C72.0439 65.2296 71.8134 64.4339 71.3524 63.9976C70.8914 63.5613 70.0462 63.1763 68.8168 62.8427V73.8917C69.5084 74.2253 70.5841 74.9953 72.0439 76.2016V66.3845Z" fill="#503C49"/>
<path d="M87.7365 63.3431L93.576 59.4548L95.1512 61.1872C96.15 62.3935 96.6751 63.7666 96.7263 65.3066V72.2363C96.7263 73.5452 96.483 74.5333 95.9964 75.2006C95.5353 75.8679 94.4212 76.6122 92.654 77.4335C92.0393 77.6902 91.3094 78.011 90.4642 78.396C89.619 78.7553 88.9659 79.089 88.5048 79.397C88.0438 79.705 87.6596 80.1028 87.3523 80.5904C84.9192 78.1522 82.486 76.5481 80.0529 75.7781V75.3161C81.2823 75.3161 81.9098 74.636 81.9354 73.2757V60.6482C81.9354 59.5703 81.6921 58.4025 81.2054 57.1449C80.7188 55.8616 80.1681 54.9762 79.5535 54.4885L79.9761 54.1035C80.77 54.8992 81.3975 56.0541 81.8585 57.5684H81.9354C82.1403 55.7974 83.1135 54.5142 84.8551 53.7185C86.5967 52.9229 88.6969 52.4994 91.1557 52.4481H92.0777V53.1411C90.541 52.9871 89.4397 53.2694 88.7738 53.988C88.1335 54.681 87.7877 55.8231 87.7365 57.4144V63.3431ZM90.9636 65.9225C90.9636 64.1516 90.5282 63.2661 89.6574 63.2661C89.1964 63.2661 88.5561 63.5741 87.7365 64.1901V73.8917L90.9636 76.7406V65.9225Z" fill="#503C49"/>
<path d="M109.942 59.4548L114.13 66.2305L105.639 71.6203C106.664 74.4692 108.418 75.9064 110.903 75.9321C111.671 75.9321 112.823 75.406 114.36 74.3537L114.668 74.7772C113.874 75.3675 112.887 76.0861 111.709 76.9331C110.557 77.78 109.635 78.473 108.943 79.012C108.277 79.5253 107.701 80.0514 107.214 80.5904C104.5 79.5381 102.604 78.3447 101.529 77.0101C100.478 75.6755 99.9278 73.9045 99.8766 71.6973V68.6944C99.979 67.1031 100.107 65.9739 100.261 65.3066C100.414 64.6136 100.811 63.9719 101.452 63.3816C102.092 62.7657 103.193 62.1754 104.756 61.6107L109.942 59.4548ZM105.562 61.9957H105.486V70.9658L109.174 68.5404L105.562 61.9957Z" fill="#503C49"/>
<path d="M123.726 64.4981L128.682 59.6858L131.909 64.9216L127.875 69.1564L124.994 64.1131L123.726 65.2296V73.5837C123.726 74.1997 123.943 74.7772 124.379 75.3161C124.814 75.8294 125.352 76.0989 125.992 76.1246C126.684 76.1246 127.862 75.4573 129.527 74.1227L129.796 74.5462L122.381 80.5134C119.641 78.0752 117.336 76.6379 115.466 76.2016V75.7781C117.156 75.7781 118.014 75.2263 118.04 74.1227V66.2305C118.04 64.9216 117.592 64.2671 116.695 64.2671C116.081 64.2671 115.556 64.5366 115.12 65.0756L114.736 64.4981L120.345 59.3778C122.573 60.7637 123.7 62.4705 123.726 64.4981Z" fill="#503C49"/>
<path d="M132.076 64.8061V64.0361C132.742 64.0361 133.229 63.8949 133.536 63.6126C133.869 63.3303 134.061 62.9068 134.112 62.3422C134.189 61.7519 134.228 60.7894 134.228 59.4548C134.228 57.4016 134.317 56.0284 134.497 55.3355C135.06 53.4875 136.072 52.5251 137.532 52.4481C138.198 52.4481 138.812 52.6149 139.376 52.9486C139.939 53.2822 140.477 53.7057 140.989 54.219C141.501 54.7323 141.809 55.0018 141.911 55.0275C142.295 54.9762 142.488 54.1164 142.488 52.4481H143.102C143.128 52.7304 143.141 53.0127 143.141 53.2951C143.166 53.5517 143.179 53.9239 143.179 54.4115C143.179 55.8488 142.897 57.0037 142.334 57.8764C141.77 58.7233 140.976 59.1468 139.952 59.1468C139.235 59.1468 138.415 58.826 137.493 58.1844C136.597 57.5427 135.956 57.2091 135.572 57.1834C135.265 57.1834 135.073 57.44 134.996 57.9534C135.329 59.1853 136.097 60.1606 137.301 60.8792C138.53 61.5722 139.939 61.9444 141.527 61.9957H143.755V64.8061H141.143C141.143 66.038 140.951 68.2453 140.567 71.4278C140.182 74.5847 139.773 77.5619 139.337 80.3594C138.902 83.157 138.402 86.0059 137.839 88.9061H137.301C136.738 85.7749 136.097 81.5015 135.38 76.0861C134.689 70.6707 134.305 66.9107 134.228 64.8061H132.076Z" fill="#503C49"/>
<path d="M156.089 59.4548L160.276 66.2305L151.786 71.6203C152.81 74.4692 154.565 75.9064 157.049 75.9321C157.818 75.9321 158.97 75.406 160.507 74.3537L160.814 74.7772C160.02 75.3675 159.034 76.0861 157.856 76.9331C156.703 77.78 155.781 78.473 155.09 79.012C154.424 79.5253 153.848 80.0514 153.361 80.5904C150.646 79.5381 148.751 78.3447 147.675 77.0101C146.625 75.6755 146.074 73.9045 146.023 71.6973V68.6944C146.126 67.1031 146.254 65.9739 146.407 65.3066C146.561 64.6136 146.958 63.9719 147.598 63.3816C148.239 62.7657 149.34 62.1754 150.902 61.6107L156.089 59.4548ZM151.709 61.9957H151.632V70.9658L155.32 68.5404L151.709 61.9957Z" fill="#503C49"/>
<path d="M164.648 59.3778C164.724 57.6839 165.39 56.3749 166.645 55.451C167.9 54.5013 169.45 54.0265 171.294 54.0265C172.446 54.0265 173.535 54.296 174.559 54.835C175.609 55.374 176.455 56.1311 177.095 57.1064C177.761 58.0817 178.107 59.211 178.132 60.4943C178.132 61.3669 177.953 62.0855 177.594 62.6502C177.236 63.1891 176.749 63.8308 176.134 64.5751C175.52 65.3194 175.212 65.8712 175.212 66.2305C175.878 66.2562 176.506 66.4872 177.095 66.9235C177.71 67.3341 178.171 67.8859 178.478 68.5789C178.811 69.2462 178.977 69.9649 178.977 70.7348C178.977 71.9668 178.721 72.9421 178.209 73.6607C177.697 74.3793 176.724 75.4188 175.289 76.7791C173.881 78.1137 172.6 79.474 171.447 80.8599C170.5 80.2183 169.399 79.705 168.144 79.32C166.889 78.9093 165.621 78.6783 164.34 78.627C163.418 78.627 162.765 78.9991 162.381 79.7435L161.843 79.4355C163.687 77.0229 164.942 75.0466 165.608 73.5067C163.457 72.5571 162.33 71.0813 162.227 69.0794C162.304 68.1298 162.611 67.27 163.149 66.5C163.713 65.7044 164.596 64.7804 165.8 63.7281C167.029 62.6758 167.939 61.8802 168.528 61.3412C169.117 60.7766 169.565 60.1478 169.872 59.4548C170.974 60.8151 172.203 61.5337 173.56 61.6107C175.712 61.3284 176.788 60.4301 176.788 58.9158C176.788 57.7609 176.211 56.7856 175.059 55.9899C173.906 55.1943 172.6 54.7708 171.14 54.7195C169.706 54.7708 168.425 55.1943 167.298 55.9899C166.197 56.7599 165.531 57.8892 165.301 59.3778H164.648ZM167.106 63.5741C166.696 63.7538 166.44 64.2799 166.338 65.1526C166.492 67.5395 167.721 69.0024 170.026 69.5414C170.871 69.5414 171.729 69.2077 172.6 68.5404C173.496 67.8731 174.214 67.0261 174.751 65.9995L174.675 65.8455C174.086 66.1535 173.368 66.346 172.523 66.423C171.576 66.423 170.551 66.115 169.45 65.499C168.374 64.8574 167.593 64.2158 167.106 63.5741ZM174.29 76.7406C174.598 76.2786 174.777 75.5985 174.828 74.7002C174.828 73.5195 174.508 72.4801 173.868 71.5818C173.253 70.6835 172.421 70.2215 171.371 70.1959C169.27 70.1189 167.503 71.3765 166.069 73.9687C168.989 73.9687 171.729 74.8927 174.29 76.7406Z" fill="#503C49"/>
<path d="M183.011 64.7291H180.629V64.2671C182.141 63.9078 183.6 62.7272 185.009 60.7252C186.443 58.7233 187.481 56.5161 188.121 54.1035H188.774V61.9187H192.769V64.7291H188.774V72.5443C188.774 74.4692 189.273 75.4701 190.272 75.5471C191.015 75.4701 191.822 75.1108 192.693 74.4692L193 74.8542C189.594 77.9084 187.468 79.7948 186.623 80.5134C186.034 79.5381 185.201 78.6655 184.125 77.8955C183.05 77.0999 182.025 76.5866 181.052 76.3556V75.7781C181.231 75.7781 181.513 75.8294 181.897 75.9321C182.358 75.8551 182.653 75.714 182.781 75.5086C182.934 75.3033 183.011 74.9183 183.011 74.3537V64.7291Z" fill="#503C49"/>
<path fill-rule="evenodd" clip-rule="evenodd" d="M62.7451 33.9158L34.9468 33.9158L34.9468 33.1362L62.7451 33.1362L62.7451 33.9158Z" fill="#503C49"/>
<path fill-rule="evenodd" clip-rule="evenodd" d="M62.7449 19.8616L34.9465 19.8616L34.9465 19.082L62.7449 19.082L62.7449 19.8616Z" fill="#503C49"/>
<path d="M41.6956 29.2701L41.6916 29.9436H38.1238V23.8348H41.6916V24.5084H38.9076V26.5375H41.1623V27.1855H38.9076V29.2701H41.6956Z" fill="#503C49"/>
<path d="M46.8809 24.7897C46.8566 24.8323 46.8297 24.865 46.8 24.8878C46.7731 24.9077 46.7394 24.9176 46.699 24.9176C46.6532 24.9176 46.5994 24.8934 46.5374 24.8451C46.4755 24.7968 46.3973 24.7442 46.3031 24.6874C46.2115 24.6277 46.0997 24.5737 45.9677 24.5254C45.8384 24.4771 45.6808 24.4529 45.4949 24.4529C45.3199 24.4529 45.165 24.4785 45.0303 24.5297C44.8983 24.578 44.7865 24.6448 44.6949 24.73C44.606 24.8153 44.5387 24.9162 44.4929 25.0327C44.4471 25.1464 44.4242 25.27 44.4242 25.4036C44.4242 25.5741 44.4633 25.7162 44.5414 25.8299C44.6222 25.9407 44.7272 26.0359 44.8565 26.1155C44.9885 26.1951 45.1367 26.2647 45.301 26.3244C45.468 26.3812 45.6377 26.4409 45.8101 26.5034C45.9852 26.5659 46.1549 26.637 46.3192 26.7166C46.4862 26.7933 46.6344 26.8914 46.7637 27.0107C46.8957 27.1301 47.0007 27.2764 47.0788 27.4498C47.1597 27.6232 47.2001 27.8363 47.2001 28.0892C47.2001 28.3564 47.157 28.6079 47.0708 28.8438C46.9846 29.0768 46.858 29.28 46.6909 29.4534C46.5266 29.6268 46.3233 29.7632 46.0808 29.8626C45.8411 29.9621 45.5677 30.0118 45.2606 30.0118C44.8835 30.0118 44.5414 29.9408 44.2343 29.7987C43.9272 29.6538 43.6646 29.4591 43.4464 29.2147L43.6727 28.8225C43.6942 28.7912 43.7198 28.7656 43.7494 28.7457C43.7818 28.723 43.8168 28.7116 43.8545 28.7116C43.8895 28.7116 43.9286 28.7273 43.9717 28.7585C44.0175 28.787 44.0686 28.8239 44.1252 28.8694C44.1818 28.9148 44.2464 28.9646 44.3191 29.0186C44.3919 29.0726 44.474 29.1223 44.5656 29.1678C44.6599 29.2133 44.7663 29.2516 44.8848 29.2829C45.0033 29.3113 45.1367 29.3255 45.2848 29.3255C45.4707 29.3255 45.6364 29.2985 45.7818 29.2445C45.9273 29.1905 46.0498 29.1152 46.1495 29.0186C46.2519 28.9191 46.33 28.8012 46.3839 28.6647C46.4377 28.5283 46.4647 28.3763 46.4647 28.2086C46.4647 28.0239 46.4243 27.8733 46.3435 27.7567C46.2653 27.6374 46.1616 27.5379 46.0323 27.4583C45.903 27.3788 45.7549 27.312 45.5879 27.258C45.4209 27.2011 45.2512 27.1443 45.0788 27.0875C44.9064 27.0278 44.7367 26.9596 44.5697 26.8828C44.4027 26.8061 44.2545 26.7066 44.1252 26.5844C43.9959 26.4622 43.8908 26.3102 43.81 26.1283C43.7319 25.9436 43.6929 25.7162 43.6929 25.4462C43.6929 25.2302 43.7319 25.0213 43.81 24.8196C43.8908 24.6178 44.0067 24.4387 44.1575 24.2824C44.3111 24.1261 44.4983 24.0011 44.7192 23.9073C44.9427 23.8135 45.1986 23.7666 45.4869 23.7666C45.8101 23.7666 46.1037 23.8206 46.3677 23.9286C46.6344 24.0366 46.8687 24.1929 47.0708 24.3975L46.8809 24.7897Z" fill="#503C49"/>
<path d="M53.3536 24.5297H51.4788V29.9436H50.6989V24.5297H48.8201V23.8348H53.3536V24.5297Z" fill="#503C49"/>
<path d="M60.3625 26.8914C60.3625 27.3489 60.2938 27.7653 60.1564 28.1404C60.019 28.5155 59.8251 28.8367 59.5746 29.1038C59.3241 29.371 59.0224 29.5784 58.6695 29.7262C58.3193 29.8712 57.9314 29.9436 57.5058 29.9436H55.3441V23.8348H57.5058C57.9314 23.8348 58.3193 23.9087 58.6695 24.0565C59.0224 24.2014 59.3241 24.4089 59.5746 24.6789C59.8251 24.946 60.019 25.2672 60.1564 25.6423C60.2938 26.0174 60.3625 26.4338 60.3625 26.8914ZM59.5584 26.8914C59.5584 26.5162 59.5099 26.1809 59.4129 25.8853C59.316 25.5897 59.1786 25.3396 59.0008 25.135C58.823 24.9304 58.6075 24.7741 58.3543 24.6661C58.1011 24.5581 57.8183 24.5041 57.5058 24.5041H56.128V29.2744H57.5058C57.8183 29.2744 58.1011 29.2204 58.3543 29.1124C58.6075 29.0044 58.823 28.8495 59.0008 28.6477C59.1786 28.4431 59.316 28.193 59.4129 27.8974C59.5099 27.6018 59.5584 27.2665 59.5584 26.8914Z" fill="#503C49"/>
<path fill-rule="evenodd" clip-rule="evenodd" d="M150.906 33.9158L123.107 33.9158L123.107 33.1362L150.906 33.1362L150.906 33.9158Z" fill="#503C49"/>
<path fill-rule="evenodd" clip-rule="evenodd" d="M150.906 19.8616L123.108 19.8616L123.108 19.082L150.906 19.082L150.906 19.8616Z" fill="#503C49"/>
<path d="M130.433 28.6642V29.1715H127.416V28.6642H128.622V25.0199C128.622 24.9105 128.626 24.7998 128.634 24.6879L127.632 25.5048C127.598 25.5322 127.564 25.5496 127.53 25.557C127.496 25.562 127.465 25.562 127.436 25.557C127.407 25.5521 127.38 25.5421 127.353 25.5272C127.33 25.5123 127.311 25.4961 127.298 25.4787L127.078 25.1915L128.756 23.8151H129.325V28.6642H130.433Z" fill="#503C49"/>
<path d="M134.37 28.7015C134.554 28.7015 134.717 28.6779 134.861 28.6306C135.008 28.5809 135.131 28.5125 135.231 28.4255C135.333 28.336 135.41 28.2303 135.462 28.1084C135.517 27.9841 135.545 27.8473 135.545 27.6981C135.545 27.5141 135.512 27.3574 135.447 27.2281C135.384 27.0963 135.297 26.9894 135.187 26.9073C135.08 26.8253 134.956 26.7656 134.814 26.7283C134.673 26.6885 134.525 26.6686 134.37 26.6686C134.216 26.6686 134.068 26.6885 133.926 26.7283C133.785 26.7656 133.659 26.8253 133.549 26.9073C133.442 26.9894 133.355 27.0963 133.29 27.2281C133.227 27.3574 133.196 27.5141 133.196 27.6981C133.196 27.8473 133.222 27.9841 133.274 28.1084C133.329 28.2303 133.407 28.336 133.506 28.4255C133.608 28.5125 133.731 28.5809 133.875 28.6306C134.022 28.6779 134.187 28.7015 134.37 28.7015ZM134.37 24.2814C134.203 24.2814 134.055 24.305 133.926 24.3522C133.801 24.3995 133.695 24.4641 133.608 24.5462C133.524 24.6283 133.46 24.724 133.416 24.8334C133.374 24.9428 133.353 25.0597 133.353 25.184C133.353 25.3059 133.371 25.424 133.408 25.5384C133.445 25.6528 133.503 25.7547 133.585 25.8443C133.666 25.9313 133.771 26.0022 133.899 26.0569C134.03 26.1091 134.187 26.1352 134.37 26.1352C134.554 26.1352 134.71 26.1091 134.838 26.0569C134.969 26.0022 135.075 25.9313 135.156 25.8443C135.237 25.7547 135.296 25.6528 135.333 25.5384C135.37 25.424 135.388 25.3059 135.388 25.184C135.388 25.0597 135.366 24.9428 135.321 24.8334C135.279 24.724 135.215 24.6283 135.129 24.5462C135.045 24.4641 134.939 24.3995 134.81 24.3522C134.685 24.305 134.538 24.2814 134.37 24.2814ZM135.176 26.3851C135.527 26.4796 135.796 26.6375 135.985 26.8588C136.174 27.0802 136.268 27.3637 136.268 27.7093C136.268 27.9431 136.221 28.1544 136.126 28.3434C136.035 28.5299 135.905 28.6891 135.737 28.8209C135.572 28.9527 135.373 29.0546 135.14 29.1267C134.907 29.1964 134.651 29.2312 134.37 29.2312C134.09 29.2312 133.833 29.1964 133.6 29.1267C133.367 29.0546 133.167 28.9527 132.999 28.8209C132.832 28.6891 132.702 28.5299 132.61 28.3434C132.519 28.1544 132.473 27.9431 132.473 27.7093C132.473 27.3637 132.567 27.0802 132.756 26.8588C132.944 26.6375 133.214 26.4796 133.565 26.3851C133.269 26.2807 133.045 26.1253 132.893 25.9189C132.744 25.71 132.669 25.4613 132.669 25.1728C132.669 24.9764 132.71 24.7924 132.791 24.6208C132.872 24.4492 132.988 24.3 133.137 24.1732C133.286 24.0464 133.464 23.9469 133.671 23.8748C133.881 23.8027 134.114 23.7666 134.37 23.7666C134.624 23.7666 134.856 23.8027 135.066 23.8748C135.275 23.9469 135.455 24.0464 135.604 24.1732C135.753 24.3 135.868 24.4492 135.95 24.6208C136.031 24.7924 136.071 24.9764 136.071 25.1728C136.071 25.4613 135.995 25.71 135.844 25.9189C135.694 26.1253 135.472 26.2807 135.176 26.3851Z" fill="#503C49"/>
<path d="M141.749 28.6642V29.1715H138.732V28.6642H139.938V25.0199C139.938 24.9105 139.942 24.7998 139.95 24.6879L138.948 25.5048C138.914 25.5322 138.88 25.5496 138.846 25.557C138.812 25.562 138.78 25.562 138.751 25.557C138.722 25.5521 138.695 25.5421 138.669 25.5272C138.645 25.5123 138.627 25.4961 138.614 25.4787L138.394 25.1915L140.071 23.8151H140.641V28.6642H141.749Z" fill="#503C49"/>
<path d="M147.729 26.5008C147.729 26.9683 147.675 27.3736 147.568 27.7168C147.463 28.0575 147.319 28.3397 147.135 28.5635C146.952 28.7873 146.735 28.9539 146.483 29.0633C146.234 29.1727 145.967 29.2275 145.682 29.2275C145.394 29.2275 145.125 29.1727 144.877 29.0633C144.63 28.9539 144.416 28.7873 144.232 28.5635C144.049 28.3397 143.905 28.0575 143.8 27.7168C143.695 27.3736 143.643 26.9683 143.643 26.5008C143.643 26.0333 143.695 25.6279 143.8 25.2847C143.905 24.9416 144.049 24.6581 144.232 24.4343C144.416 24.208 144.63 24.0401 144.877 23.9307C145.125 23.8213 145.394 23.7666 145.682 23.7666C145.967 23.7666 146.234 23.8213 146.483 23.9307C146.735 24.0401 146.952 24.208 147.135 24.4343C147.319 24.6581 147.463 24.9416 147.568 25.2847C147.675 25.6279 147.729 26.0333 147.729 26.5008ZM147.002 26.5008C147.002 26.0929 146.965 25.751 146.892 25.475C146.821 25.1965 146.724 24.9727 146.601 24.8036C146.481 24.6345 146.341 24.5139 146.181 24.4417C146.021 24.3671 145.855 24.3298 145.682 24.3298C145.509 24.3298 145.343 24.3671 145.183 24.4417C145.023 24.5139 144.883 24.6345 144.763 24.8036C144.642 24.9727 144.545 25.1965 144.472 25.475C144.401 25.751 144.366 26.0929 144.366 26.5008C144.366 26.9086 144.401 27.2505 144.472 27.5265C144.545 27.8026 144.642 28.0251 144.763 28.1942C144.883 28.3633 145.023 28.4852 145.183 28.5598C145.343 28.6319 145.509 28.6679 145.682 28.6679C145.855 28.6679 146.021 28.6319 146.181 28.5598C146.341 28.4852 146.481 28.3633 146.601 28.1942C146.724 28.0251 146.821 27.8026 146.892 27.5265C146.965 27.2505 147.002 26.9086 147.002 26.5008Z" fill="#503C49"/>
<path fill-rule="evenodd" clip-rule="evenodd" d="M169.173 45.2232H17.4734V43.6348H169.173V45.2232Z" fill="#503C49"/>
<path fill-rule="evenodd" clip-rule="evenodd" d="M62.745 94.4661L17.4734 94.4661L17.4734 93.6719L62.745 93.6719L62.745 94.4661Z" fill="#503C49"/>
<path fill-rule="evenodd" clip-rule="evenodd" d="M169.173 94.4661H123.107V93.6719H169.173V94.4661Z" fill="#503C49"/>
<path d="M71.4799 92.7433V94.6446H73.8866V95.2442H71.4799V97.582H70.6873V92.1437H74.2952V92.7433H71.4799Z" fill="#503C49"/>
<path d="M80.0641 96.9823L80.06 97.582H76.4521V92.1437H80.06V92.7433H77.2447V94.5498H79.5247V95.1266H77.2447V96.9823H80.0641Z" fill="#503C49"/>
<path d="M85.3077 92.9938C85.2831 93.0318 85.2559 93.0609 85.2259 93.0811C85.1987 93.0988 85.1647 93.1077 85.1238 93.1077C85.0775 93.1077 85.023 93.0862 84.9604 93.0431C84.8977 93.0001 84.8187 92.9533 84.7234 92.9027C84.6307 92.8496 84.5177 92.8015 84.3842 92.7585C84.2535 92.7155 84.0941 92.694 83.9062 92.694C83.7291 92.694 83.5725 92.7168 83.4363 92.7623C83.3028 92.8053 83.1897 92.8648 83.0971 92.9407C83.0072 93.0166 82.9391 93.1064 82.8928 93.2101C82.8465 93.3113 82.8234 93.4214 82.8234 93.5403C82.8234 93.6921 82.8629 93.8186 82.9419 93.9198C83.0236 94.0185 83.1298 94.1032 83.2606 94.1741C83.394 94.2449 83.5439 94.3069 83.71 94.36C83.8789 94.4106 84.0505 94.4637 84.2249 94.5194C84.4019 94.5751 84.5735 94.6383 84.7397 94.7091C84.9086 94.7775 85.0584 94.8647 85.1892 94.971C85.3226 95.0773 85.4289 95.2076 85.5079 95.3619C85.5896 95.5162 85.6305 95.706 85.6305 95.9311C85.6305 96.169 85.5869 96.3929 85.4997 96.6028C85.4125 96.8103 85.2845 96.9912 85.1156 97.1455C84.9495 97.2999 84.7438 97.4213 84.4986 97.5099C84.2562 97.5984 83.9797 97.6427 83.6692 97.6427C83.2878 97.6427 82.9419 97.5794 82.6313 97.4529C82.3208 97.3239 82.0552 97.1506 81.8345 96.933L82.0634 96.5839C82.0852 96.556 82.111 96.5333 82.141 96.5156C82.1737 96.4953 82.2091 96.4852 82.2472 96.4852C82.2826 96.4852 82.3221 96.4991 82.3657 96.5269C82.412 96.5522 82.4638 96.5851 82.521 96.6256C82.5782 96.6661 82.6436 96.7104 82.7171 96.7584C82.7907 96.8065 82.8738 96.8508 82.9664 96.8913C83.0617 96.9317 83.1693 96.9659 83.2892 96.9937C83.409 97.019 83.5439 97.0317 83.6937 97.0317C83.8816 97.0317 84.0492 97.0076 84.1963 96.9596C84.3434 96.9115 84.4673 96.8445 84.5681 96.7584C84.6716 96.6699 84.7506 96.5649 84.8051 96.4435C84.8596 96.322 84.8868 96.1867 84.8868 96.0374C84.8868 95.8729 84.8459 95.7389 84.7642 95.6351C84.6852 95.5289 84.5804 95.4403 84.4496 95.3695C84.3188 95.2986 84.169 95.2392 84.0001 95.1911C83.8313 95.1405 83.6596 95.0899 83.4853 95.0393C83.311 94.9862 83.1394 94.9255 82.9705 94.8572C82.8016 94.7888 82.6518 94.7003 82.521 94.5915C82.3902 94.4827 82.284 94.3474 82.2023 94.1854C82.1233 94.021 82.0838 93.8186 82.0838 93.5782C82.0838 93.386 82.1233 93.2 82.2023 93.0204C82.284 92.8407 82.4011 92.6814 82.5537 92.5422C82.709 92.4031 82.8983 92.2917 83.1216 92.2082C83.3477 92.1248 83.6065 92.083 83.898 92.083C84.2249 92.083 84.5218 92.1311 84.7887 92.2272C85.0584 92.3234 85.2954 92.4625 85.4997 92.6447L85.3077 92.9938Z" fill="#503C49"/>
<path d="M91.8532 92.7623H89.9573V97.582H89.1687V92.7623H87.2687V92.1437H91.8532V92.7623Z" fill="#503C49"/>
<path d="M97.4782 96.9823L97.4741 97.582H93.8661V92.1437H97.4741V92.7433H94.6588V94.5498H96.9388V95.1266H94.6588V96.9823H97.4782Z" fill="#503C49"/>
<path d="M104.487 92.1437L102.101 97.582H101.39L99.0035 92.1437H99.6368C99.7076 92.1437 99.7648 92.1602 99.8084 92.1931C99.852 92.226 99.8847 92.2677 99.9065 92.3183L101.557 96.155C101.593 96.2411 101.627 96.3347 101.659 96.4359C101.695 96.5371 101.726 96.6433 101.753 96.7546C101.781 96.6433 101.809 96.5371 101.839 96.4359C101.869 96.3347 101.902 96.2411 101.937 96.155L103.584 92.3183C103.6 92.2753 103.632 92.2361 103.678 92.2007C103.727 92.1627 103.785 92.1437 103.854 92.1437H104.487Z" fill="#503C49"/>
<path d="M109.072 95.563L108.152 93.3505C108.125 93.2848 108.097 93.2089 108.067 93.1228C108.037 93.0343 108.008 92.9407 107.981 92.842C107.924 93.0469 107.865 93.2177 107.805 93.3543L106.886 95.563H109.072ZM110.723 97.582H110.11C110.039 97.582 109.982 97.5655 109.938 97.5326C109.894 97.4997 109.862 97.458 109.84 97.4074L109.292 96.0943H106.665L106.118 97.4074C106.101 97.4529 106.07 97.4934 106.024 97.5288C105.977 97.5642 105.92 97.582 105.852 97.582H105.239L107.58 92.1437H108.381L110.723 97.582Z" fill="#503C49"/>
<path d="M115.959 96.9634V97.582H112.637V92.1437H113.426V96.9634H115.959Z" fill="#503C49"/>
<path d="M91.8945 20.9336C91.4114 20.9336 91.0894 21.2556 91.0894 21.7387V28.1797C91.0894 28.6628 91.4114 28.9849 91.8945 28.9849C92.3776 28.9849 92.6996 28.6628 92.6996 28.1797V21.7387C92.6996 21.2556 92.3776 20.9336 91.8945 20.9336Z" fill="#503C49"/>
<path d="M87.0637 15.2979C86.5806 15.2979 86.2585 15.6199 86.2585 16.103V28.1799C86.2585 28.663 86.5806 28.985 87.0637 28.985C87.5467 28.985 87.8688 28.663 87.8688 28.1799V16.103C87.8688 15.6199 87.5467 15.2979 87.0637 15.2979Z" fill="#503C49"/>
<path d="M105.582 12.882H103.166V9.98357C103.488 9.82254 103.73 9.581 103.971 9.33947C104.615 8.61485 104.857 7.72921 104.776 6.76306C104.615 5.55537 103.649 4.42819 102.442 4.10614C101.958 4.02563 101.395 4.02563 100.912 4.10614C100.107 2.5764 98.4964 1.61025 96.7251 1.61025C96.242 1.61025 95.759 1.69077 95.2759 1.85179C94.2292 0.644101 92.6995 0 91.0892 0C89.5595 0 88.1103 0.644101 87.0636 1.69077C86.8221 1.61025 86.5 1.61025 86.2585 1.61025C85.2118 1.61025 84.1651 1.9323 83.36 2.5764C82.7159 2.41538 82.1523 2.33487 81.5082 2.49589C80.22 2.81794 79.1734 3.86461 79.0123 5.15281C78.9318 5.55537 79.2539 5.95794 79.7369 6.03845C80.1395 6.11896 80.5421 5.79691 80.6226 5.39435C80.7031 4.75025 81.2667 4.18666 81.9108 4.10614C82.3133 4.02563 82.7159 4.10614 83.038 4.26717C83.36 4.42819 83.7626 4.42819 84.0041 4.18666C84.6482 3.54256 85.4533 3.22051 86.2585 3.22051C86.5 3.22051 86.8221 3.30102 87.1441 3.38153C87.4662 3.46204 87.7882 3.38153 87.9492 3.13999C88.7544 2.17384 89.8815 1.61025 91.0892 1.61025C92.3774 1.61025 93.5851 2.25435 94.3902 3.30102C94.6318 3.62307 95.0343 3.70358 95.3564 3.54256C97.1277 2.73743 99.1405 3.62307 99.7846 5.39435C99.8651 5.63588 100.026 5.79691 100.268 5.87742C100.509 5.95794 100.751 5.95794 100.912 5.87742C101.314 5.7164 101.636 5.63588 102.039 5.79691C102.603 5.87742 103.086 6.44101 103.166 7.0046C103.247 7.48768 103.086 7.97075 102.764 8.2928C102.2 8.9369 101.073 9.01742 100.429 8.37331C100.268 8.21229 100.026 8.13178 99.7846 8.13178C99.5431 8.13178 99.382 8.21229 99.221 8.45383C98.4964 9.33947 97.3692 9.82254 96.3225 9.66152C95.5979 9.581 94.8733 9.74203 94.3097 10.2251C93.8267 10.7082 93.5046 11.3523 93.5046 11.9964V16.9077C93.5046 17.1492 93.4241 17.3907 93.1826 17.5518C93.0215 17.7128 92.78 17.7128 92.5385 17.7128C92.1359 17.6323 91.8944 17.2297 91.8944 16.8271V11.8354C91.8944 10.7082 91.1697 9.82254 90.0426 9.50049C89.64 9.41998 89.3179 9.25895 88.9959 9.01742C88.7544 8.85639 88.3518 8.85639 88.1103 9.01742C87.5467 9.50049 86.9026 9.66152 86.2585 9.66152C85.2118 9.66152 84.2457 9.17844 83.6821 8.37331C83.1185 7.6487 82.3133 7.24614 81.4277 7.24614C81.0251 7.24614 80.6226 7.6487 80.6226 8.05126V28.743C80.6226 29.3871 80.5421 29.9507 80.3005 30.5143L79.898 31.6415C79.898 31.9635 79.8175 32.2051 79.8175 32.5271C79.8175 34.1374 81.1057 35.4256 82.7159 35.4256H101.073C102.683 35.4256 103.971 34.1374 103.971 32.5271C103.971 32.2051 103.891 31.883 103.81 31.6415L103.408 30.5143C103.247 29.9507 103.086 29.3066 103.086 28.743V27.3743C103.086 26.4887 103.81 25.764 104.696 25.764H105.501C106.87 25.764 107.916 24.7174 107.916 23.3487V15.2974C107.997 13.9287 106.95 12.882 105.582 12.882ZM106.387 23.3487C106.387 23.8317 106.065 24.1538 105.582 24.1538H104.776C104.213 24.1538 103.649 24.3148 103.166 24.6369V16.9077C103.166 16.4246 102.844 16.1025 102.361 16.1025C101.878 16.1025 101.556 16.4246 101.556 16.9077V28.743C101.556 29.5481 101.717 30.2728 101.958 30.9974L102.361 32.1245C102.442 32.2856 102.442 32.3661 102.442 32.5271C102.442 33.2517 101.878 33.8153 101.153 33.8153H82.7159C81.9913 33.8153 81.4277 33.2517 81.4277 32.5271C81.4277 32.3661 81.4277 32.2856 81.5082 32.1245L81.9108 30.9974C82.0718 30.2728 82.2328 29.5481 82.2328 28.743V9.17844C82.3133 9.25895 82.3133 9.25895 82.3939 9.33947C83.2795 10.5472 84.7287 11.2718 86.2585 11.2718C87.0636 11.2718 87.8687 11.0302 88.5933 10.7082C88.9154 10.8692 89.3179 11.0302 89.64 11.1107C90.0426 11.1913 90.2841 11.5133 90.2841 11.9159V16.9077C90.2841 18.1153 91.1697 19.162 92.2969 19.4035C92.4579 19.4035 92.5385 19.4035 92.6995 19.4035C93.2631 19.4035 93.8267 19.2425 94.2292 18.84C94.7928 18.3569 95.1149 17.7128 95.1149 16.9882V12.0769C95.1149 11.7548 95.2759 11.5938 95.3564 11.5133C95.5174 11.3523 95.8395 11.2718 96.081 11.2718C96.3225 11.2718 96.4836 11.3523 96.7251 11.3523C97.9328 11.3523 99.06 10.8692 99.9456 10.1446C100.429 10.4666 100.992 10.5472 101.556 10.5472V13.7677C101.556 14.2507 101.878 14.5728 102.361 14.5728H105.582C106.065 14.5728 106.387 14.8948 106.387 15.3779V23.3487Z" fill="#503C49"/>
<path d="M96.725 15.2979C96.242 15.2979 95.9199 15.6199 95.9199 16.103V28.1799C95.9199 28.663 96.242 28.985 96.725 28.985C97.2081 28.985 97.5302 28.663 97.5302 28.1799V16.103C97.5302 15.6199 97.2081 15.2979 96.725 15.2979Z" fill="#503C49"/>
</svg>
