<?xml version="1.0" encoding="utf-8"?>
<!-- Generator: Adobe Illustrator 24.1.2, SVG Export Plug-In . SVG Version: 6.00 Build 0)  -->
<svg version="1.1" id="Слой_1" xmlns="http://www.w3.org/2000/svg" xmlns:xlink="http://www.w3.org/1999/xlink" x="0px" y="0px"
	 viewBox="0 0 111 46" style="enable-background:new 0 0 111 46;" xml:space="preserve">
<style type="text/css">
	.st0{fill:#503C49;}
</style>
<path class="st0" d="M55.9,20.2c-1,0-1.9-0.3-2.5-0.9c-0.1-0.1-0.2-0.3-0.2-0.4c0-0.2-0.1-0.7-0.2-1.5l0-0.4c0-0.1,0-0.1,0.1-0.2
	c0.1,0,0.2-0.1,0.3-0.1c0.2,0,0.3,0.1,0.3,0.2c0.2,0.9,0.6,1.5,1,1.9c0.5,0.4,1,0.6,1.5,0.6c0.6,0,1.1-0.2,1.5-0.6
	c0.4-0.4,0.6-0.9,0.6-1.6c0-0.5-0.1-0.9-0.2-1.2c-0.1-0.3-0.3-0.6-0.6-0.8c-0.3-0.2-0.7-0.5-1.2-0.8L56,14.5
	c-0.6-0.4-1.1-0.7-1.4-0.9s-0.6-0.6-0.9-1c-0.2-0.4-0.4-0.8-0.4-1.3c0-1,0.3-1.7,1-2.4C55,8.3,55.9,8,57.1,8c0.6,0,1.2,0.1,1.9,0.4
	c0.1,0,0.2,0.1,0.2,0.2c0.1,0.1,0.1,0.2,0.1,0.3c0.1,0.4,0.2,0.8,0.3,1c0.1,0.3,0.1,0.5,0.1,0.8c0,0.1-0.1,0.2-0.3,0.2
	c-0.1,0-0.2,0-0.3-0.1c-0.1,0-0.2-0.1-0.2-0.2c-0.3-0.7-0.6-1.2-0.9-1.5c-0.3-0.3-0.8-0.5-1.2-0.5c-0.6,0-1.1,0.2-1.5,0.5
	c-0.4,0.3-0.6,0.8-0.6,1.5c0,0.3,0.1,0.6,0.3,0.9s0.5,0.6,0.8,0.8c0.3,0.2,0.8,0.5,1.4,0.9c0.6,0.3,1,0.7,1.4,0.9s0.6,0.6,0.9,1
	c0.2,0.4,0.4,0.9,0.4,1.5c0,1.1-0.4,1.9-1.1,2.6C58.1,19.9,57.1,20.2,55.9,20.2z M62.7,20.2c-0.2,0-0.4-0.1-0.6-0.3
	c-0.2-0.2-0.4-0.4-0.6-0.6c-0.1-0.3-0.2-0.5-0.2-0.7c0-0.4,0.1-0.7,0.3-0.9c0.2-0.2,0.5-0.4,1-0.6l1.8-0.8c0.2-0.1,0.4-0.2,0.4-0.3
	s0.1-0.2,0.1-0.5l0-1.2c0-0.3-0.1-0.6-0.3-0.8c-0.2-0.2-0.5-0.3-0.8-0.3c-0.2,0-0.4,0-0.5,0.1c-0.2,0.1-0.3,0.1-0.5,0.2
	c-0.1,0.1-0.2,0.3-0.2,0.5l0,0.3c0,0.1-0.2,0.2-0.5,0.4c-0.3,0.2-0.5,0.2-0.7,0.2c-0.1,0-0.1,0-0.1,0c0,0-0.1-0.1-0.1-0.1
	c0-0.2,0.1-0.4,0.2-0.6c0.1-0.2,0.3-0.4,0.5-0.6c0.4-0.4,0.9-0.7,1.4-0.9c0.5-0.2,1-0.4,1.3-0.4c0.4,0,0.8,0.2,1.1,0.5
	c0.3,0.3,0.4,0.7,0.4,1.1l-0.1,4.3c0,0.3,0,0.5,0.2,0.6c0.1,0.2,0.3,0.2,0.5,0.2c0.3,0,0.5-0.1,0.7-0.2c0.1-0.1,0.1-0.1,0.1-0.1
	c0.1,0,0.1,0,0.1,0.1c0,0,0.1,0.1,0.1,0.1c0,0,0,0.1-0.1,0.2c0,0.1-0.1,0.1-0.1,0.2c-0.2,0.2-0.4,0.3-0.6,0.4
	c-0.2,0.1-0.4,0.2-0.6,0.2c-0.6,0-1-0.3-1.3-0.9H65c-0.4,0.3-0.8,0.6-1.1,0.7C63.5,20.1,63.1,20.2,62.7,20.2z M63.6,19.3
	c0.4,0,0.8-0.1,1.1-0.4c0.1-0.1,0.1-0.2,0.2-0.3c0-0.1,0.1-0.3,0.1-0.5l0-0.9v-0.1c0-0.1,0-0.2,0-0.2c0,0-0.1-0.1-0.1-0.1
	c-0.1,0-0.2,0-0.4,0.1c-0.6,0.2-1,0.4-1.3,0.7c-0.3,0.2-0.4,0.5-0.4,0.7c0,0.3,0.1,0.5,0.3,0.7C63.1,19.2,63.4,19.3,63.6,19.3z
	 M68.6,20c-0.2,0-0.4-0.1-0.4-0.2c0-0.1,0-0.1,0.1-0.2c0.1,0,0.2-0.1,0.3-0.1c0.3-0.1,0.5-0.1,0.6-0.3c0.1-0.1,0.2-0.3,0.2-0.5v-5.1
	c-0.4,0-0.7,0-0.9,0c0,0-0.1-0.1-0.2-0.1c-0.1-0.1-0.1-0.1-0.1-0.2c0,0,0-0.1,0.1-0.1l1.1-0.5c0-1.3,0.2-2.3,0.6-3.1
	c0.4-0.8,0.9-1.4,1.5-1.7c0.6-0.3,1.2-0.5,1.8-0.5c0.6,0,1.1,0.1,1.5,0.3c0.3,0.2,0.5,0.4,0.5,0.8c0,0.2-0.1,0.4-0.2,0.5
	C75.1,9,74.9,9,74.8,9c-0.1,0-0.2,0-0.2-0.1c-0.1,0-0.1-0.1-0.2-0.2c-0.1-0.1-0.1-0.1-0.2-0.2c-0.2-0.2-0.4-0.3-0.6-0.5
	C73.3,8,73,8,72.7,8c-0.6,0-1.1,0.3-1.4,0.8c-0.3,0.5-0.5,1.2-0.5,2.2v1.6c0,0.1,0.1,0.2,0.2,0.2h2.3c0.1,0,0.1,0,0.2,0.1
	c0,0,0.1,0.1,0.1,0.1c0,0.2,0,0.4-0.1,0.5c0,0.1-0.1,0.1-0.2,0.1h-2.1c-0.1,0-0.2,0-0.3,0.1c0,0-0.1,0.1-0.1,0.2v4.9
	c0,0.3,0.1,0.4,0.2,0.6c0.2,0.1,0.5,0.2,1,0.2c0.3,0,0.4,0.1,0.4,0.3c0,0.1-0.1,0.2-0.4,0.2c-0.4,0-0.7,0-1-0.1c-0.4,0-0.7,0-0.9,0
	c-0.2,0-0.4,0-0.7,0C69.2,20,68.9,20,68.6,20z M77,20.2c-0.6,0-1.1-0.2-1.4-0.5c-0.3-0.4-0.5-0.9-0.5-1.6v-4.2c0-0.1,0-0.2-0.1-0.2
	c-0.1,0-0.2-0.1-0.4-0.1h-0.1c-0.1,0-0.1,0-0.2-0.1c0-0.1-0.1-0.2-0.1-0.3c0,0,0-0.1,0-0.1c0,0,0.1-0.1,0.1-0.1
	c0.6-0.5,1.2-0.9,1.6-1.4c0-0.1,0.1-0.1,0.1-0.1c0,0,0.1-0.1,0.2-0.1c0.2,0,0.2,0.1,0.2,0.2l-0.1,0.8v0.1c0,0.1,0,0.2,0.1,0.2
	c0.1,0,0.2,0.1,0.3,0.1h2.1c0,0,0.1,0,0.1,0.1c0,0.1,0.1,0.2,0.1,0.3c0,0.1,0,0.2-0.1,0.3c0,0.1-0.1,0.1-0.1,0.1h-1.8
	c-0.3,0-0.5,0-0.6,0.1c-0.1,0-0.1,0.2-0.1,0.4v3.5c0,0.5,0.1,0.9,0.3,1.2c0.2,0.3,0.5,0.4,0.9,0.4c0.3,0,0.6,0,0.8-0.1
	c0.2,0,0.4-0.1,0.5-0.3l0.1,0c0.1,0,0.1,0.1,0.1,0.3c0,0.1-0.1,0.2-0.3,0.4c-0.2,0.2-0.5,0.3-0.8,0.5C77.6,20.1,77.3,20.2,77,20.2z
	 M83.1,20.2c-0.6,0-1.2-0.2-1.7-0.5c-0.5-0.3-0.9-0.8-1.2-1.4c-0.3-0.6-0.4-1.3-0.4-2.1c0-0.7,0.2-1.3,0.5-1.9
	c0.3-0.6,0.8-1.1,1.3-1.4c0.5-0.3,1.1-0.5,1.7-0.5c0.7,0,1.3,0.2,1.8,0.6c0.5,0.4,0.7,1,0.7,1.6c0,0.4-0.2,0.6-0.5,0.6h-3.8
	c-0.2,0-0.3,0-0.4,0.1c-0.1,0.1-0.1,0.3-0.1,0.5c0,0.6,0.1,1.1,0.4,1.6c0.3,0.5,0.6,0.9,1,1.2c0.4,0.3,0.9,0.4,1.4,0.4
	c0.7,0,1.3-0.3,1.8-0.8c0.1-0.1,0.1-0.1,0.2-0.1c0.1,0,0.1,0.1,0.1,0.2c0,0.2-0.1,0.5-0.3,0.8c-0.3,0.3-0.6,0.6-1,0.8
	C84,20.1,83.5,20.2,83.1,20.2z M83,14.8c0.6,0,1,0,1.3-0.1c0.1,0,0.1-0.1,0.1-0.4c0-0.3-0.2-0.6-0.5-0.9C83.7,13.1,83.4,13,83,13
	c-0.3,0-0.5,0.1-0.8,0.3c-0.3,0.2-0.5,0.4-0.7,0.6c-0.2,0.2-0.3,0.5-0.3,0.7c0,0.1,0.1,0.2,0.2,0.2H83z M89.9,20.2
	c-0.6,0-1.1-0.2-1.6-0.5c-0.5-0.3-0.9-0.7-1.2-1.3c-0.3-0.5-0.4-1.1-0.4-1.8c0-0.8,0.2-1.5,0.5-2.1c0.3-0.6,0.8-1.2,1.4-1.5
	c0.6-0.4,1.2-0.6,1.9-0.6c0.8,0,1.5,0.2,2.1,0.6c0.1,0.1,0.2,0.2,0.2,0.3c0,0.2-0.1,0.3-0.3,0.5s-0.3,0.3-0.5,0.3
	c-0.1,0-0.1,0-0.2-0.1c-0.1,0-0.1-0.1-0.2-0.1c-0.3-0.2-0.6-0.4-0.9-0.6c-0.3-0.2-0.6-0.3-0.8-0.3c-0.6,0-1.1,0.3-1.4,0.8
	c-0.4,0.6-0.5,1.3-0.5,2.1c0,0.6,0.1,1.1,0.4,1.5c0.2,0.5,0.6,0.8,1,1.1c0.4,0.3,0.9,0.4,1.4,0.4c0.3,0,0.6-0.1,0.9-0.2
	c0.3-0.1,0.5-0.3,0.8-0.6c0.1-0.1,0.1-0.1,0.2-0.1c0.1,0,0.1,0,0.1,0.1c0,0,0.1,0.1,0.1,0.2c0,0.1-0.1,0.3-0.3,0.6
	c-0.3,0.4-0.7,0.7-1.1,0.8C90.9,20.1,90.4,20.2,89.9,20.2z M94.1,20c-0.2,0-0.4-0.1-0.4-0.2c0-0.1,0-0.1,0.1-0.2
	c0.1,0,0.2-0.1,0.3-0.1c0.2-0.1,0.4-0.2,0.6-0.3c0.1-0.1,0.2-0.3,0.2-0.5v-9c0-0.8-0.3-1.2-0.8-1.3C94,8.4,94,8.3,94,8.2
	C94,8.1,94,8,94.1,8c0.9-0.3,1.6-0.5,2-0.7c0,0,0.1,0,0.1,0c0.1,0,0.1,0,0.1,0.1c0,0.1,0,0.2-0.1,0.6c0,0.3-0.1,0.9-0.1,1.9V13
	c0,0.2,0,0.3,0,0.4c0,0.1,0.1,0.2,0.1,0.3c1-0.8,1.9-1.1,2.7-1.1c0.6,0,1.1,0.2,1.5,0.7c0.4,0.5,0.6,1.1,0.6,1.7v3.8
	c0,0.4,0.2,0.6,0.7,0.8c0.1,0,0.2,0.1,0.3,0.1c0.1,0,0.1,0.1,0.1,0.2c0,0.1-0.1,0.2-0.4,0.2c-0.3,0-0.6,0-0.8-0.1
	c-0.2,0-0.5,0-0.6,0s-0.4,0-0.6,0c-0.2,0-0.4,0.1-0.8,0.1c-0.2,0-0.4-0.1-0.4-0.2c0-0.1,0-0.1,0.1-0.1c0.1,0,0.2-0.1,0.3-0.1
	c0.2-0.1,0.4-0.2,0.5-0.3c0.1-0.1,0.2-0.3,0.2-0.5V15c0-0.3-0.1-0.6-0.3-0.8c-0.2-0.3-0.4-0.5-0.6-0.6c-0.3-0.2-0.5-0.2-0.8-0.2
	c-0.3,0-0.5,0-0.8,0.1c-0.3,0.1-0.5,0.2-0.7,0.3c-0.2,0.2-0.3,0.3-0.4,0.5c-0.1,0.2-0.1,0.4-0.1,0.8v3.7c0,0.2,0.1,0.4,0.2,0.5
	c0.1,0.1,0.3,0.2,0.5,0.3c0.1,0,0.2,0.1,0.3,0.1c0.1,0,0.1,0.1,0.1,0.2c0,0.1,0,0.1-0.1,0.1c0,0-0.1,0.1-0.3,0.1
	c-0.3,0-0.6,0-0.7-0.1c-0.2,0-0.4,0-0.6,0c-0.2,0-0.4,0-0.7,0C94.7,20,94.4,20,94.1,20z M53,40.1c-0.3,0-0.4-0.1-0.4-0.2
	c0-0.1,0-0.1,0.1-0.2c0.1,0,0.2-0.1,0.3-0.1c0.3-0.1,0.5-0.2,0.6-0.3c0.1-0.1,0.2-0.2,0.2-0.4v-9.1c0-0.2-0.1-0.5-0.2-0.8
	c-0.1-0.3-0.3-0.5-0.6-0.6c0,0-0.1,0-0.1-0.1c0,0,0-0.1,0-0.2c0-0.1,0-0.2,0.1-0.2c0.5-0.1,1-0.3,1.4-0.4c0.4-0.2,0.6-0.3,0.7-0.3
	l0,0c0,0,0,0,0.1,0.1c0,0,0,0.1,0,0.1l0,0.5c0,0.2-0.1,0.4-0.1,0.6c0,0.1,0,0.2,0,0.2c0.1-0.1,0.4-0.3,0.7-0.5
	c0.3-0.2,0.7-0.4,1.1-0.5c0.4-0.1,0.8-0.2,1.1-0.2c0.6,0,1.1,0.2,1.5,0.5c0.5,0.3,0.8,0.8,1,1.3c0.2,0.5,0.4,1.1,0.4,1.6
	c0,0.7-0.2,1.4-0.5,2.1c-0.4,0.7-0.9,1.2-1.5,1.6c-0.6,0.4-1.3,0.6-2,0.6c-0.3,0-0.6-0.1-1-0.2c-0.4-0.1-0.7-0.2-0.8-0.4
	c0,0,0,0.1-0.1,0.4c0,0.2,0,0.4,0,0.6v3.4c0,0.2,0.1,0.3,0.2,0.4c0.2,0.1,0.3,0.2,0.5,0.2c0.2,0,0.3,0.1,0.3,0.1
	c0.1,0,0.2,0.1,0.3,0.1c0.1,0,0.1,0.1,0.1,0.2c0,0.1-0.1,0.2-0.4,0.2c-0.3,0-0.6,0-0.9-0.1c-0.3,0-0.6,0-0.8,0c-0.2,0-0.4,0-0.7,0
	C53.6,40,53.3,40.1,53,40.1z M57.2,34.6c0.3,0,0.6-0.1,1-0.3c0.4-0.2,0.7-0.6,1-1c0.3-0.5,0.4-1.1,0.4-1.8c0-1.2-0.3-2-0.8-2.5
	c-0.5-0.5-1.1-0.7-1.7-0.7c-0.3,0-0.6,0.1-0.9,0.2c-0.3,0.1-0.6,0.2-0.8,0.4c-0.2,0.2-0.3,0.3-0.3,0.4c0,0.5,0,1.2,0,1.9
	c0,0.2,0,0.5,0,0.8c0,0.5,0.1,0.9,0.3,1.3c0.2,0.4,0.5,0.7,0.8,1C56.6,34.5,56.9,34.6,57.2,34.6z M62.5,35c-0.2,0-0.4-0.1-0.4-0.2
	c0-0.1,0-0.1,0.1-0.2c0.1,0,0.2-0.1,0.3-0.1c0.5-0.1,0.7-0.3,0.7-0.7v-3.9c0-0.4-0.1-0.6-0.2-0.9c-0.1-0.2-0.3-0.4-0.6-0.4
	c0,0-0.1,0-0.1-0.1s-0.1-0.1-0.1-0.1c0,0,0-0.1,0.1-0.1c0,0,0.1-0.1,0.1-0.1c0.5-0.2,1.1-0.4,1.8-0.9c0.1-0.1,0.2-0.1,0.3-0.1
	c0.1,0,0.1,0,0.1,0.1c0,0.3,0,0.8-0.1,1.4c0,0,0,0,0,0c0.3-0.4,0.6-0.7,1-0.9c0.4-0.2,0.7-0.3,1.1-0.3c0.3,0,0.5,0.1,0.6,0.2
	c0.2,0.1,0.3,0.2,0.3,0.4c0,0.2-0.1,0.4-0.2,0.6C67.2,28.9,67,29,66.8,29c-0.1,0-0.3-0.1-0.5-0.2c0,0-0.1,0-0.3-0.1
	c-0.1,0-0.2-0.1-0.3-0.1c-0.3,0-0.6,0.1-0.9,0.3c-0.2,0.2-0.4,0.6-0.4,1.2v3.6c0,0.2,0.1,0.3,0.2,0.4c0.2,0.1,0.4,0.2,0.7,0.3
	c0.1,0,0.2,0.1,0.3,0.1c0.1,0,0.1,0.1,0.1,0.2c0,0.1-0.1,0.2-0.4,0.2c-0.3,0-0.6,0-0.8-0.1c-0.3,0-0.5,0-0.7,0c-0.2,0-0.4,0-0.7,0
	C63.1,35,62.8,35,62.5,35z M71.8,35.2c-0.7,0-1.3-0.2-1.8-0.5c-0.5-0.3-1-0.7-1.3-1.3c-0.3-0.6-0.5-1.2-0.5-1.9
	c0-0.7,0.2-1.3,0.5-1.9c0.4-0.6,0.8-1.2,1.4-1.5c0.6-0.4,1.3-0.6,2-0.6c0.7,0,1.3,0.2,1.9,0.5c0.6,0.3,1,0.8,1.3,1.3
	c0.3,0.6,0.5,1.1,0.5,1.8c0,0.7-0.2,1.4-0.5,2c-0.3,0.6-0.8,1.1-1.4,1.5C73.4,35,72.7,35.2,71.8,35.2z M72.2,34.6
	c0.9,0,1.5-0.3,1.9-1c0.2-0.5,0.4-1.2,0.4-2.1c0-0.6-0.1-1.1-0.3-1.7c-0.2-0.5-0.5-1-0.9-1.3c-0.4-0.3-0.8-0.5-1.3-0.5
	c-0.3,0-0.6,0.1-0.9,0.2c-0.3,0.1-0.5,0.3-0.7,0.6c-0.2,0.3-0.4,0.6-0.4,1c-0.1,0.4-0.1,0.9-0.1,1.4c0,0.6,0.1,1.2,0.3,1.7
	c0.2,0.5,0.5,1,0.9,1.3C71.3,34.5,71.7,34.6,72.2,34.6z M83,35.3c0,0-0.1,0-0.1-0.1c0,0-0.1-0.1-0.1-0.1l0-0.5
	c0-0.2,0.1-0.4,0.1-0.6v-0.1c-0.2,0.3-0.5,0.6-0.9,0.9c-0.4,0.3-0.9,0.4-1.4,0.4c-0.7,0-1.2-0.2-1.7-0.5c-0.5-0.3-0.9-0.8-1.2-1.4
	c-0.3-0.6-0.4-1.2-0.4-1.8c0-0.7,0.2-1.4,0.5-2c0.3-0.6,0.8-1.1,1.4-1.5c0.6-0.4,1.3-0.6,2.1-0.6c0.2,0,0.5,0,0.7,0.1
	c0.2,0,0.4,0.1,0.6,0.1c0.1,0,0.2,0.1,0.2,0.1c0,0,0.1,0,0.1-0.1c0-0.1,0-0.2,0-0.3v-2.6c0-0.5-0.1-0.8-0.2-1
	c-0.1-0.2-0.4-0.3-0.7-0.4c-0.1,0-0.2-0.1-0.2-0.2c0-0.1,0-0.2,0.1-0.2c0.6-0.2,1.1-0.3,1.4-0.4c0.3-0.1,0.5-0.2,0.5-0.2
	c0.1,0,0.2-0.1,0.2-0.1c0.1,0,0.1,0,0.1,0.1c0,0.1,0,0.3-0.1,0.7c0,0.4-0.1,1-0.1,1.8V33c0,0.4,0,0.7,0.1,0.9
	c0.1,0.2,0.2,0.3,0.3,0.3c0.2,0,0.5,0,0.8-0.1h0.1c0.2,0,0.2,0.1,0.2,0.2c0,0.1,0,0.2-0.1,0.2c0,0.1-0.1,0.1-0.2,0.1
	c-0.6,0.1-1.3,0.3-2.1,0.6C83.1,35.2,83,35.3,83,35.3z M81.1,34.3c0.3,0,0.6-0.1,0.9-0.2c0.3-0.2,0.6-0.4,0.8-0.6l0-3.2
	c0-0.3-0.1-0.6-0.3-1c-0.2-0.3-0.4-0.6-0.8-0.8c-0.3-0.2-0.7-0.3-1.1-0.3c-0.3,0-0.7,0.1-1,0.3c-0.3,0.2-0.6,0.5-0.9,0.9
	c-0.2,0.4-0.4,1-0.4,1.8c0,0.8,0.2,1.5,0.5,1.9c0.3,0.5,0.7,0.8,1.1,1C80.4,34.2,80.8,34.3,81.1,34.3z M92.2,35.3
	c-0.1,0-0.1,0-0.1-0.1l0-0.5c0-0.2,0.1-0.5,0.1-0.6v-0.1c-0.5,0.5-0.9,0.8-1.4,1c-0.5,0.2-1,0.3-1.6,0.3c-0.6,0-1.1-0.2-1.5-0.6
	c-0.4-0.4-0.6-0.9-0.6-1.6v-3.7c0-0.3-0.1-0.5-0.2-0.6c-0.1-0.2-0.3-0.3-0.6-0.4c-0.2,0-0.2-0.1-0.2-0.3c0-0.2,0.1-0.3,0.3-0.3
	c0.4,0,0.7-0.1,0.9-0.1c0.2,0,0.5-0.1,0.9-0.2l0.1,0c0.1,0,0.2,0.1,0.2,0.3c-0.1,0.6-0.1,1-0.1,1.4v3.5c0,0.4,0.2,0.8,0.5,1.2
	c0.3,0.3,0.7,0.5,1,0.5c0.4,0,0.6,0,0.9-0.1c0.2,0,0.4-0.2,0.6-0.3c0.2-0.2,0.4-0.3,0.6-0.5c0.2-0.2,0.3-0.5,0.3-0.8v-3.3
	c0-0.3-0.1-0.6-0.4-0.7c-0.3-0.1-0.5-0.2-0.8-0.2c-0.3,0-0.4-0.1-0.4-0.3c0-0.2,0.1-0.3,0.4-0.3c0.5,0,0.9,0,1.2-0.1
	c0.3,0,0.6-0.1,1-0.2c0.1,0,0.1,0,0.2,0c0.1,0,0.1,0,0.2,0.1c0,0,0.1,0.1,0.1,0.1l0,0.2c0,0.1-0.1,0.3-0.1,0.6c0,0.2,0,0.5,0,0.7
	v4.2c0,0.6,0.1,0.9,0.3,0.9l0.4,0l0.4,0c0.2,0,0.3,0.1,0.3,0.2c0,0.1,0,0.2-0.1,0.2c0,0-0.1,0-0.2,0.1c-0.4,0.1-0.8,0.1-1.1,0.2
	c-0.3,0.1-0.7,0.2-1,0.4C92.4,35.2,92.3,35.3,92.2,35.3z M99,35.2c-0.6,0-1.1-0.1-1.6-0.5c-0.5-0.3-0.9-0.7-1.2-1.3
	c-0.3-0.5-0.4-1.1-0.4-1.8c0-0.8,0.2-1.5,0.5-2.1c0.3-0.6,0.8-1.2,1.4-1.5c0.6-0.4,1.2-0.6,1.9-0.6c0.8,0,1.5,0.2,2.1,0.6
	c0.1,0.1,0.2,0.2,0.2,0.3c0,0.2-0.1,0.3-0.3,0.5c-0.2,0.2-0.3,0.3-0.5,0.3c-0.1,0-0.1,0-0.2-0.1c-0.1,0-0.1-0.1-0.2-0.1
	c-0.3-0.2-0.6-0.4-0.9-0.6c-0.3-0.2-0.6-0.3-0.8-0.3c-0.6,0-1.1,0.3-1.4,0.8c-0.4,0.6-0.5,1.3-0.5,2.1c0,0.6,0.1,1.1,0.4,1.5
	c0.2,0.5,0.6,0.8,1,1.1c0.4,0.3,0.9,0.4,1.4,0.4c0.3,0,0.6-0.1,0.9-0.2c0.3-0.1,0.5-0.3,0.8-0.6c0.1-0.1,0.1-0.1,0.2-0.1
	c0.1,0,0.1,0,0.1,0.1c0,0,0.1,0.1,0.1,0.2c0,0.1-0.1,0.3-0.3,0.6c-0.3,0.4-0.7,0.7-1.1,0.8C100,35.1,99.5,35.2,99,35.2z M105.9,35.2
	c-0.6,0-1.1-0.2-1.4-0.5c-0.3-0.4-0.5-0.9-0.5-1.6v-4.2c0-0.1,0-0.2-0.1-0.2c-0.1,0-0.2-0.1-0.4-0.1h-0.1c-0.1,0-0.1,0-0.2-0.1
	c0-0.1-0.1-0.2-0.1-0.3c0,0,0-0.1,0-0.1c0,0,0.1-0.1,0.1-0.1c0.6-0.5,1.2-0.9,1.6-1.4c0-0.1,0.1-0.1,0.1-0.1c0,0,0.1-0.1,0.2-0.1
	c0.2,0,0.2,0.1,0.2,0.2l-0.1,0.8v0.1c0,0.1,0,0.2,0.1,0.2c0.1,0,0.2,0.1,0.3,0.1h2.1c0,0,0.1,0,0.1,0.1c0,0.1,0.1,0.2,0.1,0.3
	c0,0.1,0,0.2-0.1,0.3c0,0.1-0.1,0.1-0.1,0.1H106c-0.3,0-0.5,0-0.6,0.1c-0.1,0-0.1,0.2-0.1,0.4v3.5c0,0.5,0.1,0.9,0.3,1.2
	c0.2,0.3,0.5,0.4,0.9,0.4c0.3,0,0.6,0,0.8-0.1c0.2,0,0.4-0.1,0.5-0.3l0.1,0c0.1,0,0.1,0.1,0.1,0.3c0,0.1-0.1,0.2-0.3,0.4
	c-0.2,0.2-0.5,0.3-0.8,0.5C106.5,35.1,106.2,35.2,105.9,35.2z"/>
<path class="st0" d="M24.7,15.6L22.2,6c0-0.1-0.1-0.1-0.2,0L5.4,31.6c-0.1,0.1,0.1,0.2,0.2,0.1L24.7,15.6
	C24.7,15.6,24.8,15.6,24.7,15.6z"/>
<path class="st0" d="M10.6,30.5l-7.5,6.9c-0.1,0.1,0,0.2,0.1,0.2l30.7,0.6c0.1,0,0.1-0.2,0-0.2L10.6,30.5
	C10.6,30.5,10.6,30.5,10.6,30.5z"/>
<path class="st0" d="M30.2,34.7l9.7,3.1c0.1,0,0.2-0.1,0.1-0.1L25.2,10.7c-0.1-0.1-0.2,0-0.2,0.1L30.2,34.7
	C30.2,34.6,30.2,34.7,30.2,34.7z"/>
</svg>
