<?xml version="1.0" encoding="utf-8"?>
<!-- Generator: Adobe Illustrator 24.1.2, SVG Export Plug-In . SVG Version: 6.00 Build 0)  -->
<svg version="1.1" id="Слой_1" xmlns="http://www.w3.org/2000/svg" xmlns:xlink="http://www.w3.org/1999/xlink" x="0px" y="0px"
	 viewBox="0 0 360 75" style="enable-background:new 0 0 360 75;" xml:space="preserve">
<style type="text/css">
	.st0{fill:#C77C50;fill-opacity:0.75;}
</style>
<path class="st0" d="M55.7,73.2c-2.2-0.6-3.9-1.7-5.5-3.7c-1.5-1.8-2.1-3.2-2.2-4.6c0-1.5,0.5-2.4,2-3.4c1.5-1,2.6-1.4,4.9-1.5
	c3.5-0.2,5.8,0.7,6.8,2.6c0.5,1.1,0.6,2,0.1,3c-0.7,1.6-2,2.4-4,2.4c-2.4,0-3.9-1.3-3.9-3.4c0-0.9,0.4-1.6,0.8-1.6
	c0.1,0,0.4,0.5,0.7,1.1c0.5,1.2,1.1,1.6,2.2,1.6c0.5,0,0.9-0.2,1.4-0.6c0.6-0.5,0.7-0.7,0.5-1.2c-0.4-1.3-4-2.1-6.6-1.5
	c-1.3,0.3-2.6,1.2-3,2c-0.3,0.5-0.3,0.7-0.1,1.4c0.6,1.8,2.6,4.2,4.3,5.2c2.7,1.6,6.9,1.5,11.9-0.2c4.4-1.5,7.8-4.1,9.3-7.2
	c1.3-2.6,1.6-4.3,1.7-8.7c0.1-2.2,0-4.4,0-5L77,48.7l-1.5,1.5c-1.7,1.7-3.5,2.7-6.5,3.5c-1.8,0.5-2.5,0.5-5.5,0.5
	c-3.8,0-5.8-0.3-8.6-1.3c-4.1-1.4-7.3-3.4-15-9.3c-8.2-6.3-11.6-8.3-16.9-9.6c-3-0.8-7.2-0.9-10-0.3c-5.1,1-8.7,4-10.6,8.8
	c-3.2,8,1,16.2,9.8,19.1c4,1.3,9.2,1.6,12.4,0.8c4.7-1.3,7.7-4.4,8.2-8.8c0.5-4.6-3.2-9.5-7.4-9.9c-3.5-0.4-7.7,1.6-8.4,4
	c-0.5,1.6,0.4,4,1.7,4.7c0.6,0.3,2.4,0.3,3.2-0.1c1.5-0.8,1.7-1.3,0.9-2.1c-0.8-0.8-0.7-1.1,0.3-1c1.5,0.2,2.3,1.4,1.8,2.7
	c-0.6,1.7-2.8,2.9-5.1,2.9c-3.2,0-5.3-2.4-5.3-6c0-1.4,0.1-1.8,0.6-2.8c2-4.2,9.1-6.1,13.8-3.8c2.7,1.3,5.1,4.4,5.8,7.6
	c0.5,2,0.3,4.8-0.4,6.7c-0.6,1.8-2.1,3.9-3.5,5c-1.4,1.1-4,2.3-5.9,2.7c-2.4,0.5-6.9,0.5-9.6-0.1C7.4,62.5,2.7,58.8,0.5,52.6
	C0,51.2,0,50.8,0,48.1c0-2.8,0-3.1,0.7-4.9c1-3,2.1-4.7,4.1-6.7c2.1-2.1,4-3.2,7.3-4c1.7-0.5,2.4-0.5,5.2-0.5c2.2,0,3.7,0.1,5,0.3
	c6.1,1.2,10.3,3.3,19.3,10.1c9.2,6.8,13.3,8.8,19.1,9.4c5.7,0.5,10.5-0.7,13.2-3.4c1.3-1.3,2.5-3.5,2.7-5.2l0.1-1.1l-0.8,0.7
	c-1.4,1.1-2.3,1.3-5.4,1.3c-3.4,0-5.4-0.4-7.7-1.5c-4.7-2.3-10.1-7.9-12.6-12.9c-1.3-2.7-1.6-3.9-1.5-6c0.2-2.8,1.5-4.8,3.9-5.9
	c1.1-0.5,1.6-0.6,3.3-0.7c2.4-0.1,3.9,0.2,6,1.2c1.6,0.8,3.8,2.9,4.5,4.2c1.6,3.4,0.6,7.2-2.4,8.7c-1.1,0.5-1.5,0.6-2.7,0.6
	c-1.7,0-2.5-0.3-3.9-1.2c-1.3-0.9-2.2-2.3-2.2-3.4c0-2.1,2.6-3.2,5.4-2.4c1.2,0.4,2.6,1.3,2.8,1.9c0.3,0.8-0.2,0.9-2.2,0.4
	c-1.6-0.4-2-0.4-2.8-0.2c-0.5,0.1-0.9,0.3-0.9,0.4c0,0.3,1.8,1.8,2.5,2.1c1.6,0.5,3.6-0.3,4.4-1.9c1.3-2.6-0.4-6.1-3.9-7.8
	c-4.3-2.2-8.3-1.4-10,1.9c-1,2.1-0.9,3.9,0.6,7C54,34,60.8,40,65.6,41.2c0.6,0.2,2.2,0.4,3.4,0.4c4.5,0.2,6-0.6,6.8-4
	c0.2-1,0.6-1.9,1.2-3c0.1-0.2,0.4-1,0.5-1.8c0.5-2.4,1.6-4.3,3.5-6.1c2.8-2.8,5.9-4,9.9-4.1c3.1,0,5.3,0.7,8.1,2.5
	c0.4,0.3,0.4,0.1-0.3-1.6c-0.8-2.2-1.8-5.7-2.1-7.9c-0.3-2.2-0.1-6.7,0.3-8.1c0.9-2.6,3-4.7,5.6-5.6c1.6-0.5,5.2-0.7,6.9-0.3
	c2.5,0.7,5.2,2.4,6.8,4.3c3,3.8,2.5,8.9-1.1,10.7c-1,0.5-2.6,0.5-3.4,0.1c-0.7-0.4-1.3-1.7-1.1-2.6c0.2-0.8,0.4-0.7,1.1,0.3
	c0.8,1.1,1.5,1.2,2.6,0.4c1-0.8,1.7-2.1,1.7-3.4c0-1.1-0.8-3-1.7-4c-1-1.1-2.7-2.3-4-2.9c-1.2-0.6-1.5-0.6-3.7-0.6
	c-2.9,0-4,0.3-5.5,1.7c-1.9,1.7-2.6,3.8-2.4,7.5c0.3,7.3,4.1,16.4,10.3,24.8l1.2,1.6l0.1-1.6c0.2-3,1.8-5.4,4.2-6.6
	c1.3-0.6,1.5-0.7,3.5-0.7c1.9,0,2.3,0.1,3.3,0.5c1.6,0.8,3.1,2.2,3.9,3.8c0.6,1.2,0.7,1.5,0.7,3.1c0,2.2-0.5,3.5-1.8,4.7
	c-1,0.9-2.1,1.2-3.7,1c-1.2-0.2-2.8-1.1-3.4-1.9c-1.3-1.8-1.2-4.2,0.4-5.7c0.8-0.8,1-0.9,1.8-0.9c0.7,0,1.1,0.1,1.6,0.6
	c0.6,0.5,0.7,0.7,0.7,1.6c0,1.5-0.4,1.8-1.4,0.8c-0.7-0.6-0.8-0.7-1-0.4c-0.2,0.2-0.4,0.7-0.4,1.1c-0.1,0.7,0,0.9,0.5,1.5
	c0.7,0.8,1.6,1.2,2.6,1.2c0.6,0,0.9-0.1,1.5-0.8c1.3-1.4,1.6-3.5,0.6-5.5c-1.1-2.1-2.8-3.3-5.1-3.5c-1.1-0.1-1.5,0-2.4,0.4
	c-2.3,1.1-3.4,2.7-3.6,5.2c-0.1,1.9,0.2,3,1.7,5.3c0.6,1,1.3,2.3,1.6,2.8c0.7,1.5,5.2,5.5,9.5,8.4c12.3,8.3,26.3,10.6,39.4,6.3
	c3.7-1.2,6.2-2.7,8.4-5c3.1-3.3,4-7.6,2.7-12.6c-2-7.8-7.7-12.3-15.4-12.3c-7.4,0-15,4.7-15,9.4c0,3.6,3.5,6.2,7.9,5.8
	c3.5-0.2,6.1-2.2,6.1-4.7c0-1.1-1.1-3.4-2.1-4.3c-0.5-0.5-0.8-0.6-1.7-0.5c-1.1,0-1.2,0-1.9,0.9c-0.4,0.5-0.8,1-0.8,1.1
	c0,0.3-0.9,0.6-1.2,0.4c-0.1-0.1-0.2-0.3-0.2-0.5c0-0.6,1.1-2.6,1.6-3.2c1-0.9,3.5-1.2,4.8-0.5c1,0.5,2.3,2,3.1,3.7
	c2.6,5.2-1.5,10.2-8.4,10.2c-5.1,0-8.7-2.6-9.5-6.9c-0.9-4.8,3.1-9.5,10.4-11.8c2.6-0.9,4.5-1.1,7.7-1c2.4,0.1,3,0.2,4.7,0.8
	c2.3,0.8,3.7,1.5,5.5,3c3.1,2.5,5.4,6.5,6.2,10.8c0.4,2,0.4,5.7,0,7.3c-1.2,4.8-5,8.7-10.6,10.8c-5.5,2.1-10.4,2.8-16.9,2.7
	c-4.3-0.1-6.1-0.3-9.8-1.3c-12-3-23.6-11.2-32.6-22.9c-1-1.3-2-2.4-2.1-2.4c-0.4,0-1.4-1.2-3.7-4.6c-3-4.5-4.9-6.3-8-7.4
	c-1.4-0.5-4.3-0.7-6.1-0.4c-0.7,0.1-2,0.6-3,1.1c-3.8,1.9-6.3,5.6-6.3,9.5c0,3.3,2.3,8.2,5.1,10.7c2.7,2.4,4.7,2.5,6.8,0.3
	c1.2-1.3,1.8-2.6,1.9-4.3c0.1-1.1,0-1.5-0.4-2.2c-0.8-1.5-2.5-2.3-3.2-1.5c-0.2,0.3-0.2,0.4,0.1,1c0.4,0.9,0.3,1.1-0.5,1.1
	c-0.4,0-0.8-0.2-1.2-0.6c-1.3-1.3-0.4-3.6,1.5-4.1c1.6-0.4,3.4,0.2,4.7,1.6c2.3,2.6,1.9,7.1-1,10.2c-1.6,1.7-3,2.3-4.8,2.2
	c-1.8-0.1-3-0.6-4.6-2.1c-1.3-1.2-2.3-2.5-3.3-4.2L79,42.5l0.1,1.5c0.1,0.8,0.2,3.1,0.3,5c0.1,3.1,0.1,3.4,0.4,2.6
	c0.3-1,1.3-2.5,1.7-2.5c0.1,0,0.5,0.4,0.9,0.9c0.4,0.5,1.4,1.6,2.3,2.5c2.2,2.2,2.9,3.4,2.9,5c0,1.4-0.7,2.8-1.5,3.1
	c-0.8,0.2-2.4-0.8-3.8-2.2c-1.5-1.5-2-2.3-2.5-3.7l-0.3-1l0,1.1c0,3.1-1,7-2.4,9.7c-0.9,1.7-3.5,4.4-5.2,5.4
	C67.1,72.6,59.5,74.2,55.7,73.2z M85.1,57.1c0-0.9-3.6-5.9-3.9-5.5c-0.3,0.4-0.2,1.8,0.2,2.5c0.4,0.8,1.4,1.8,2.7,2.7
	C84.9,57.5,85.1,57.5,85.1,57.1z"/>
<path class="st0" d="M297.7,73.2c-3.3-0.6-7.1-1.9-9.5-3.4c-0.6-0.4-1.9-1.4-2.8-2.3c-1.3-1.3-1.8-2-2.6-3.6
	c-1.2-2.4-1.9-5.2-2.1-8.1c-0.1-2.1-0.1-2.2-0.4-1.3c-0.4,1.3-1.2,2.5-2.6,3.9c-1.4,1.4-3.2,2.4-3.8,2.2c-0.8-0.2-1.4-1.7-1.4-3.1
	c0-1.6,0.7-2.8,2.9-5c0.9-0.9,2-2.1,2.3-2.5c0.4-0.5,0.8-0.9,0.9-0.9c0.3,0,1.3,1.4,1.6,2.4c0.2,0.7,0.3,0.5,0.4-2.6
	c0.1-1.9,0.2-4,0.3-4.9l0.1-1.5l-0.6,1.1c-1,1.7-2,3-3.3,4.2c-1.6,1.5-2.8,2.1-4.7,2.1c-1.3,0.1-1.6,0-2.6-0.4
	c-1.4-0.7-3.2-2.6-3.9-4.1c-2-4.3-0.2-9,3.7-9.6c2-0.3,3.7,1,3.7,2.7c0,0.8-0.1,1-0.6,1.5c-0.4,0.4-0.8,0.6-1.2,0.6
	c-0.8,0-0.9-0.2-0.5-1.1c0.3-0.6,0.3-0.8,0.1-1c-0.7-0.8-2.4,0-3.2,1.5c-1,1.8-0.3,4.6,1.5,6.5c2.1,2.2,4.1,2.1,6.8-0.3
	c2.8-2.5,5.1-7.3,5.1-10.7c0-3.9-2.5-7.6-6.3-9.5c-2.1-1-3.6-1.3-6-1.2c-4.5,0.3-7.2,2.2-11,7.9c-2.3,3.4-3.2,4.6-3.7,4.6
	c-0.1,0-1,0.9-1.8,2.1c-10.6,14-24.3,22.6-38.7,24.4c-2.2,0.3-8.2,0.3-10.4,0c-5.5-0.7-10.7-2.2-14.1-4.3c-1.8-1.1-4.2-3.3-5.2-4.9
	c-1.4-2.2-1.9-3.9-2-6.9c-0.1-3,0.1-4.6,1-7.2c1.1-3.3,3-6.1,5.5-8.1c1.8-1.4,3.2-2.2,5.5-3c1.7-0.6,2.2-0.7,4.9-0.8
	c3.3-0.1,5.5,0.2,8,1.1c4.7,1.7,8,4.2,9.4,7.2c0.5,1.2,0.6,1.5,0.6,3.2c0,1.7,0,2-0.8,3.4c-1.6,3.2-4.6,4.8-8.8,4.8
	c-6.9,0-11-4.9-8.4-10.2c0.8-1.6,2.1-3.2,3.1-3.7c1.3-0.7,3.8-0.4,4.8,0.5c0.6,0.5,1.6,2.6,1.6,3.2c0,0.2-0.1,0.5-0.2,0.5
	c-0.3,0.2-1.2-0.1-1.2-0.4c0-0.1-0.4-0.7-0.8-1.1c-0.8-0.9-0.8-0.9-2-0.9c-1.1,0-1.2,0-1.8,0.8c-1,1.2-1.9,3.1-1.9,4.1
	c0,2.5,2.6,4.4,6.1,4.7c3.5,0.2,6.3-1.1,7.5-3.8c1-2.1,0.4-4.4-1.7-6.4c-2.1-2.1-5-3.6-8.6-4.5c-3.8-1-8.3-0.5-11.4,1
	c-4.2,2.1-7,5.8-8.3,10.8c-1.3,5-0.3,9.3,2.7,12.6c2.1,2.3,4.3,3.6,8.1,4.9c7.4,2.6,15.9,2.9,23.7,1c8.1-2,15.6-6.1,22.9-12.6
	c1.6-1.4,2.3-2.2,2.6-2.9c0.2-0.5,0.9-1.6,1.4-2.5c0.6-0.9,1.2-2.1,1.5-2.8c0.5-1.1,0.5-1.5,0.5-2.8c-0.1-2.5-1.3-4.2-3.6-5.2
	c-0.9-0.4-1.3-0.5-2.4-0.4c-2.3,0.2-4,1.4-5.1,3.5c-1,2-0.7,4,0.6,5.5c0.6,0.7,0.9,0.8,1.5,0.8c1.9,0,3.4-1.5,3-3
	c-0.3-1.2-0.7-1.3-1.5-0.5c-0.5,0.6-0.7,0.7-1,0.5c-0.3-0.2-0.4-0.5-0.4-1.3c0-0.9,0.1-1.1,0.7-1.6c0.5-0.5,0.9-0.6,1.6-0.6
	c0.8,0,1,0.1,1.8,0.9c1.6,1.6,1.8,3.9,0.4,5.7c-0.6,0.8-2.2,1.7-3.4,1.9c-1.6,0.2-2.7-0.1-3.7-1c-1.3-1.2-1.8-2.5-1.8-4.7
	c0-1.6,0.1-1.9,0.7-3.1c0.8-1.6,2.2-3,3.9-3.8c1-0.5,1.4-0.5,3.3-0.5c2,0,2.2,0,3.5,0.7c2.5,1.2,4,3.6,4.2,6.6l0.1,1.6l1.2-1.6
	c6.1-8.4,9.9-17.5,10.2-24.7c0.2-4.2-0.7-6.6-3.1-8.2c-2-1.3-6-1.5-8.4-0.4c-4.5,2-6.9,6.3-5.1,9.1c1.1,1.7,2.7,2.3,3.4,1.3
	c1.1-1.6,1.4-1.7,1.4-0.3c0,0.9-0.6,1.9-1.2,2.2c-0.8,0.4-2.3,0.3-3.3-0.2c-1.2-0.6-2.4-2.1-2.8-3.4c-1.3-4.6,2.7-10.1,8.5-11.6
	c1.6-0.4,5.2-0.3,6.9,0.3c2.6,0.9,4.7,3,5.6,5.6c0.5,1.4,0.7,5.9,0.3,8.1c-0.3,2.2-1.3,5.7-2.1,7.9l-0.7,1.9l0.6-0.4
	c2.5-1.6,4.8-2.3,7.8-2.3c2.7,0,3.9,0.3,6.3,1.4c3.8,1.8,6.5,5.2,7.3,9.3c0.1,0.6,0.4,1.4,0.7,1.8c0.3,0.4,0.6,1.4,0.8,2.1
	c0.9,3.7,2.2,4.6,6.9,4.3c3.6-0.2,5.6-0.9,8.9-3.2c1.9-1.3,5.7-5.1,7-6.9c1.1-1.5,2.4-4.2,2.8-5.4c0.3-1,0.3-3.1,0-3.9
	c-1.4-3.7-5.7-4.8-10.3-2.6c-4.4,2.2-5.9,7.1-2.8,9.3c1,0.7,2.2,0.9,3.2,0.5c0.8-0.2,2.5-1.7,2.5-2.1c0-0.1-0.4-0.3-0.9-0.4
	c-0.7-0.2-1.2-0.1-2.8,0.2c-2,0.5-2.4,0.4-2.2-0.4c0.2-0.6,1.6-1.6,2.8-1.9c1.9-0.6,3.7-0.3,4.8,0.8c0.5,0.5,0.7,0.8,0.7,1.6
	c0,1.2-0.9,2.5-2.2,3.4c-1.3,0.9-2.2,1.2-3.9,1.2c-4.7,0-7.3-4.7-5.1-9.3c1-2.2,4.1-4.5,7.1-5.3c2-0.5,5-0.3,6.7,0.4
	c3,1.4,4.5,4.5,3.7,8.3c-0.3,1.8-2.2,5.4-3.8,7.6c-2.8,3.7-7,7.4-10.1,8.9c-2.3,1.1-4.5,1.5-7.7,1.5c-3,0-3.9-0.3-5.3-1.3l-0.8-0.7
	l0.1,1.1c0.3,2.7,2.5,5.7,5.3,7c4.5,2.2,11.3,2.2,16.9,0.1c3.4-1.3,6.1-3,14-8.9c6.3-4.7,9.9-6.8,14-8.2c3.1-1.1,5.4-1.4,9.1-1.4
	c2.7,0,3.4,0.1,5.2,0.5c3.2,0.8,5.2,1.9,7.3,4c2,2,3.1,3.8,4.1,6.7c0.6,1.8,0.7,2.1,0.7,4.9c0,2.7,0,3.1-0.6,4.6
	c-1.7,5-5.4,8.6-10.8,10.5c-3,1.1-5.6,1.5-8.9,1.5c-3.7,0-5.5-0.3-8-1.6c-2.2-1.1-3.5-2.1-4.6-3.9c-1.3-1.9-1.8-3.6-1.9-5.9
	c-0.2-3.5,0.9-6.5,3.4-9c2.7-2.8,6.1-3.6,10.5-2.5c2.7,0.7,5,2.3,6,4.3c0.5,1,0.6,1.4,0.6,2.8c0,3.6-2.2,6-5.3,6
	c-1.8,0-3.3-0.6-4.3-1.7c-1.3-1.4-1.3-2.8,0-3.6c0.8-0.5,1.8-0.5,1.8-0.1c0,0.2-0.2,0.5-0.5,0.8c-0.8,0.8-0.6,1.4,0.7,2
	c1.5,0.8,3.3,0.6,4.2-0.5c1.6-1.9,1.3-4.5-0.6-6c-1.7-1.4-4.7-2.2-7-2c-4.4,0.4-8.1,5.7-7.3,10.4c1.3,7.5,9.3,10.7,19.8,7.9
	c9.2-2.5,13.9-11.1,10.5-19.3c-1.4-3.4-3.6-5.9-6.7-7.4c-2.8-1.4-5.1-1.8-8.9-1.7c-7.3,0.3-11.7,2.3-21.9,10.2
	c-7.5,5.8-10.8,7.9-15,9.3c-2.9,1-4.8,1.3-8.6,1.3c-3,0-3.7-0.1-5.5-0.5c-3-0.8-4.8-1.7-6.5-3.5l-1.5-1.5l-0.1,1.3
	c-0.1,0.7-0.1,3,0,5c0.2,5.9,1.1,8.7,4.1,11.6c2.5,2.5,5.8,4,10.5,5c5.5,1.1,9.1-0.2,11.6-4.1c1.5-2.3,1.4-3.4-0.2-4.4
	c-1.3-0.8-2.6-1.1-4.6-1c-2.1,0.1-3.6,0.8-3.9,1.7c-0.2,0.5-0.1,0.6,0.5,1.2c0.4,0.4,0.9,0.6,1.4,0.6c1.1,0,1.7-0.4,2.2-1.6
	c0.3-0.6,0.6-1.1,0.7-1.1c0.4,0,0.8,0.7,0.8,1.6c0,2.1-1.5,3.4-3.9,3.4c-2,0-3.3-0.8-4-2.4c-0.4-1-0.4-1.9,0.2-3
	c0.9-1.9,3.3-2.8,6.8-2.6c2.3,0.1,3.4,0.4,4.9,1.5c1.5,1,2,1.9,2,3.4c0,1.4-0.6,2.7-2,4.5c-1.7,2.1-3.5,3.3-5.8,3.8
	C302.8,73.6,299.7,73.6,297.7,73.2z M275.9,56.9c2.1-1.5,3.1-2.9,3.1-4.3c0-1.2-0.2-1.4-0.8-0.6c-2.1,2.7-3.2,4.4-3.2,5.1
	C274.9,57.6,275,57.5,275.9,56.9z"/>
</svg>
